<svg width="536" height="213" fill="none" xmlns="http://www.w3.org/2000/svg"><path fill-rule="evenodd" clip-rule="evenodd" d="M418.633 99.683a8.61 8.61 0 00-1.614-2.809c-.731-.858-1.639-1.58-2.71-2.166-1.079-.58-2.351-.877-3.813-.877a2.964 2.964 0 01-2.016-.76c-.579-.505-.865-1.228-.865-2.16 0-2.42-.846-4.487-2.54-6.203-1.693-1.71-3.727-2.568-6.114-2.568H375.89c-2.387 0-4.421.852-6.115 2.568-1.693 1.716-2.539 3.784-2.539 6.203h.006v11.691c0-2.413-.853-4.481-2.54-6.197-1.693-1.716-3.733-2.574-6.115-2.574-.767 0-1.443-.272-2.022-.815-.572-.55-.864-1.247-.864-2.105 0-2.42-.847-4.487-2.534-6.203-1.693-1.71-3.734-2.568-6.115-2.568h-17.309c-2.381 0-4.415.852-6.109 2.568-1.693 1.716-2.539 3.784-2.539 6.203 0 .698-.274 1.364-.81 1.988-.536.623-1.23.932-2.077.932-2.381 0-4.422.858-6.115 2.574-1.693 1.716-2.533 3.784-2.533 6.197v23.395c0 1.994.572 3.753 1.729 5.271-1.644-1.561-3.605-2.351-5.883-2.351h-5.768c-.694 0-1.346-.247-1.961-.76-.615-.506-.926-1.228-.926-2.16v-58.48c0-2.414-.846-4.482-2.539-6.198-1.687-1.716-3.728-2.574-6.109-2.574s-4.422.858-6.115 2.574c-1.693 1.716-2.539 3.784-2.539 6.198V90.91c0-2.42-.847-4.487-2.54-6.203-1.693-1.71-3.727-2.568-6.115-2.568-2.387 0-4.422.852-6.115 2.568-1.693 1.716-2.533 3.784-2.533 6.203v35.086c0 .858-.274 1.562-.81 2.105-.536.543-1.231.815-2.077.815h-17.303c-.847 0-1.541-.272-2.077-.815-.536-.543-.81-1.247-.81-2.105V90.911c0-2.42-.846-4.487-2.533-6.203-1.694-1.71-3.734-2.568-6.115-2.568-2.382 0-4.422.852-6.115 2.568-1.693 1.716-2.54 3.784-2.54 6.203v11.549c-.03-2.351-.877-4.376-2.533-6.055-1.693-1.716-3.734-2.574-6.115-2.574-.847 0-1.541-.272-2.077-.815-.542-.55-.81-1.247-.81-2.11 0-2.414-.847-4.482-2.54-6.198-1.687-1.71-3.727-2.574-6.108-2.574h-17.309c-.688 0-1.346-.247-1.961-.76-.616-.506-.92-1.228-.92-2.16V67.517c0-2.414-.847-4.482-2.54-6.198-1.693-1.716-3.727-2.574-6.115-2.574-2.387 0-4.421.858-6.114 2.574-1.693 1.716-2.534 3.784-2.534 6.198v35.085c0-2.413-.853-4.481-2.54-6.197-1.693-1.716-3.733-2.574-6.114-2.574-.615 0-1.255-.253-1.907-.76-.651-.505-.98-1.228-.98-2.16 0-2.42-.847-4.487-2.54-6.203-1.687-1.71-3.727-2.568-6.115-2.568h-28.838c-2.381 0-4.421.852-6.115 2.568-1.693 1.716-2.533 3.784-2.533 6.203 0 2.42.846 4.482 2.533 6.198 1.694 1.716 3.734 2.574 6.115 2.574h28.838c.622 0 1.255.253 1.907.759.651.506.98 1.228.98 2.16 0 .932-.329 1.661-.98 2.167-.652.506-1.285.759-1.907.759h-28.838c-2.381 0-4.421.858-6.115 2.574-1.668 1.692-2.515 3.735-2.533 6.111v-11.611c0-2.413-.853-4.481-2.54-6.197-1.693-1.716-3.733-2.574-6.115-2.574-.846 0-1.54-.272-2.076-.815-.536-.55-.804-1.247-.804-2.11 0-2.414-.853-4.482-2.54-6.198-1.693-1.71-3.733-2.574-6.115-2.574H68.915c-.694 0-1.346-.247-1.96-.76-.616-.506-.927-1.228-.927-2.16V67.517c0-2.414-.846-4.482-2.54-6.198-1.686-1.716-3.727-2.574-6.108-2.574s-4.422.858-6.115 2.574c-1.693 1.716-2.54 3.784-2.54 6.198v70.177c0 2.414.847 4.482 2.54 6.198 1.687 1.716 3.728 2.574 6.115 2.574h28.838c2.382 0 4.422-.864 6.115-2.574 1.687-1.716 2.54-3.784 2.54-6.198 0-.938.304-1.66.92-2.166.614-.507 1.266-.76 1.96-.76 2.382 0 4.422-.858 6.115-2.574 1.693-1.716 2.54-3.783 2.54-6.197 0 2.414.846 4.481 2.54 6.197 1.687 1.716 3.727 2.574 6.108 2.574.695 0 1.346.272 1.961.821.615.544.926 1.247.926 2.105 0 2.414.847 4.482 2.54 6.198 1.687 1.716 3.727 2.574 6.108 2.574h28.845c2.381 0 4.421-.858 6.114-2.574 1.694-1.716 2.54-3.784 2.54-6.198 0 2.414.847 4.482 2.534 6.198 1.693 1.716 3.733 2.574 6.114 2.574h28.845c2.381 0 4.421-.864 6.108-2.574 1.693-1.716 2.54-3.784 2.54-6.198 0-.938.311-1.66.926-2.166.615-.507 1.267-.76 1.961-.76 2.381 0 4.422-.858 6.115-2.574 1.662-1.691 2.509-3.722 2.533-6.098.025 2.376.871 4.407 2.54 6.098 1.687 1.716 3.727 2.574 6.115 2.574.846 0 1.535.291 2.077.877.536.586.804 1.272.804 2.049 0 2.414.846 4.482 2.539 6.198 1.693 1.716 3.728 2.574 6.115 2.574h17.303c.846 0 1.541.271 2.077.814.536.55.81 1.247.81 2.105 0 .858-.274 1.562-.81 2.105-.536.55-1.231.821-2.077.821h-28.838c-2.388 0-4.428.858-6.115 2.574-1.693 1.71-2.54 3.784-2.54 6.198 0 2.413.847 4.487 2.54 6.197 1.687 1.716 3.727 2.574 6.115 2.574h28.838c2.381 0 4.422-.858 6.115-2.574 1.693-1.716 2.539-3.784 2.539-6.197 0-.778.268-1.463.804-2.043.536-.587 1.231-.883 2.077-.883 2.381 0 4.422-.858 6.115-2.568 1.693-1.716 2.54-3.784 2.54-6.204v-23.388c0 2.414.846 4.481 2.539 6.197 1.687 1.716 3.728 2.574 6.115 2.574.688 0 1.34.253 1.961.76.609.506.92 1.228.92 2.166 0 2.414.846 4.482 2.539 6.198 1.688 1.716 3.728 2.574 6.115 2.574h5.768c2.381 0 4.422-.864 6.109-2.574 1.693-1.716 2.539-3.784 2.539-6.198 0-2-.578-3.759-1.736-5.277 1.645 1.567 3.612 2.351 5.89 2.351.847 0 1.541.272 2.077.821.536.544.81 1.247.81 2.105 0 2.414.846 4.482 2.539 6.198 1.688 1.716 3.728 2.574 6.109 2.574h17.309c2.381 0 4.422-.864 6.115-2.574 1.687-1.716 2.534-3.784 2.534-6.198 0-.623.249-1.271.755-1.932.493-.66 1.206-.994 2.131-.994 2.382 0 4.422-.858 6.115-2.574 1.693-1.716 2.54-3.783 2.54-6.197v11.697c0 2.414.84 4.482 2.533 6.198 1.694 1.716 3.734 2.574 6.115 2.574 2.382 0 4.422-.864 6.115-2.574 1.693-1.716 2.54-3.784 2.54-6.198v-35.092c0-.777.268-1.463.804-2.043.542-.586 1.23-.876 2.076-.876h11.536c.694 0 1.346.271 1.961.815.615.549.926 1.246.926 2.104v35.092c0 2.414.846 4.482 2.539 6.198 1.687 1.716 3.728 2.574 6.109 2.574s4.428-.864 6.115-2.574c1.693-1.716 2.539-3.784 2.539-6.198v-35.092c0-.932-.17-1.907-.517-2.92zM89.099 125.997c0 1.012-.305 1.753-.92 2.222-.615.469-1.267.698-1.96.698H68.914c-.773 0-1.443-.272-2.022-.815-.572-.543-.865-1.247-.865-2.105v-23.395c0-.697.268-1.364.81-1.987.536-.624 1.23-.932 2.077-.932h17.303c.847 0 1.535.29 2.077.876.536.58.804 1.266.804 2.043v23.395zm56.763 2.105c-.622.543-1.273.815-1.968.815h-17.303c-.688 0-1.346-.272-1.961-.815-.615-.543-.919-1.247-.919-2.105 0-.704.268-1.364.804-1.988.542-.623 1.23-.938 2.076-.938h17.303c.847 0 1.541.315 2.077.938.542.624.81 1.284.81 1.988 0 .858-.31 1.562-.919 2.105zm58.601-2.105c0 1.012-.31 1.753-.919 2.222-.621.469-1.273.698-1.961.698H184.28c-.774 0-1.444-.272-2.022-.815-.579-.543-.865-1.247-.865-2.105v-23.395c0-.697.268-1.364.804-1.987.542-.624 1.23-.932 2.077-.932h17.309c.84 0 1.534.29 2.077.876.535.58.803 1.266.803 2.043v23.395zm145.47 0c0 1.012-.311 1.753-.92 2.222-.621.469-1.273.698-1.961.698h-17.303c-.773 0-1.443-.272-2.022-.815-.578-.543-.865-1.247-.865-2.105v-23.395c0-.697.268-1.358.81-1.987.536-.624 1.225-.932 2.071-.932h17.309c.841 0 1.535.29 2.077.876.536.58.804 1.266.804 2.043v23.395zm86.843-56.258a2.177 2.177 0 01.493-2.272l7.985-8.092a2.114 2.114 0 012.241-.5l17.029 6.34c.42.154.694.561.694 1.012v3.777c0 .284-.109.562-.31.76l-4.142 4.197a1.049 1.049 0 01-1.12.247l-4.574-1.71-5.025-1.876c-.426-.16-.84.259-.682.69l3.538 9.73c.147.394.049.839-.243 1.135l-3.685 3.734a1.091 1.091 0 000 1.525l3.703 3.753c.292.296.39.74.244 1.136l-3.539 9.728c-.158.432.256.852.682.691l9.599-3.586a1.05 1.05 0 011.12.247l4.124 4.179c.201.204.31.475.31.759v3.778c0 .45-.274.852-.694 1.012l-17.004 6.358c-.78.29-1.651.099-2.242-.5l-7.984-8.092a2.185 2.185 0 01-.494-2.272l6.255-17.179a2.168 2.168 0 000-1.493l-6.273-17.235-.006.019zm58.651 35.9c.286.79.097 1.673-.494 2.272l-7.984 8.092a2.113 2.113 0 01-2.241.5l-17.029-6.339a1.074 1.074 0 01-.695-1.012v-3.778c0-.284.11-.562.311-.759l4.142-4.198a1.05 1.05 0 011.12-.247l4.574 1.71 5.025 1.877c.426.16.84-.26.682-.692l-3.539-9.728a1.086 1.086 0 01.244-1.136l3.685-3.734a1.091 1.091 0 000-1.525l-3.703-3.753a1.084 1.084 0 01-.244-1.135l3.538-9.729c.159-.432-.255-.852-.682-.691l-9.598 3.586a1.05 1.05 0 01-1.121-.247l-4.123-4.179a1.077 1.077 0 01-.311-.759v-3.778c0-.45.281-.851.695-1.012l17.004-6.358a2.104 2.104 0 012.241.5l7.985 8.093a2.18 2.18 0 01.493 2.271l-6.255 17.179a2.18 2.18 0 000 1.494l6.274 17.234.006-.019z" fill="#fff"/></svg>