<svg width="430" height="250" viewBox="0 0 430 250" fill="none" xmlns="http://www.w3.org/2000/svg" class="fg" data-v-418b1cd4=""><circle cx="218.072" cy="118.132" r="98.6164" fill="url(#paint0_radial_16927_5720)" data-v-418b1cd4=""></circle> <g filter="url(#filter0_f_16927_5720)" data-v-418b1cd4=""><path fill-rule="evenodd" clip-rule="evenodd" d="M183.374 19.5176L182.471 20.1564L155.022 39.5587L154.119 40.1975L155.063 41.4751L183.745 80.2799L184.69 81.5575L186.538 82.1963L242.669 101.599L244.517 102.237L245.42 101.599L272.869 82.1963L273.773 81.5575L272.828 80.2799L244.146 41.4751L243.201 40.1975L241.353 39.5587L185.222 20.1564L183.374 19.5176ZM239.586 42.7527L266.38 79.0023L240.739 97.1271L188.305 79.0023L161.511 42.7527L187.152 24.6279L239.586 42.7527ZM277.691 147.504L276.787 148.143L249.339 167.545L248.435 168.184L249.379 169.461L278.062 208.266L279.006 209.544L280.854 210.183L336.985 229.585L338.833 230.224L339.737 229.585L367.185 210.183L368.089 209.544L367.145 208.266L338.462 169.461L337.518 168.184L335.67 167.545L279.539 148.143L277.691 147.504ZM333.903 170.739L360.697 206.989L335.056 225.113L282.621 206.989L255.827 170.739L281.468 152.614L333.903 170.739ZM275.541 84.1505L276.445 83.5117L278.293 84.1505L334.424 103.553L336.272 104.192L337.216 105.469L365.898 144.274L366.843 145.552L365.939 146.19L338.491 165.593L337.587 166.232L335.739 165.593L279.608 146.19L277.76 145.552L276.816 144.274L248.133 105.469L247.189 104.192L248.093 103.553L275.541 84.1505ZM359.451 142.996L332.657 106.747L280.222 88.6221L254.581 106.747L281.375 142.996L333.81 161.121L359.451 142.996ZM184.331 83.5117L183.427 84.1505L155.979 103.553L155.075 104.192L156.02 105.469L184.702 144.274L185.646 145.552L187.494 146.19L243.625 165.593L245.473 166.232L246.377 165.593L273.825 146.19L274.729 145.552L273.785 144.274L245.102 105.469L244.158 104.192L242.31 103.553L186.179 84.1505L184.331 83.5117ZM240.543 106.747L267.337 142.996L241.696 161.121L189.261 142.996L162.467 106.747L188.108 88.6221L240.543 106.747ZM91.037 84.1505L91.9407 83.5117L93.7887 84.1505L149.92 103.553L151.768 104.192L152.712 105.469L181.395 144.274L182.339 145.552L181.435 146.19L153.987 165.593L153.083 166.232L151.235 165.593L95.1041 146.19L93.2561 145.552L92.3118 144.274L63.6293 105.469L62.6849 104.192L63.5886 103.553L91.037 84.1505ZM174.947 142.996L148.153 106.747L95.718 88.6221L70.077 106.747L96.8709 142.996L149.306 161.121L174.947 142.996ZM90.2976 19.5176L89.3939 20.1564L61.9456 39.5587L61.0419 40.1975L61.9862 41.4751L90.6688 80.2799L91.6132 81.5575L93.4612 82.1963L149.592 101.599L151.44 102.237L152.344 101.599L179.792 82.1963L180.696 81.5575L179.752 80.2799L151.069 41.4751L150.125 40.1975L148.277 39.5587L109.928 26.3032L92.1457 20.1564L90.2976 19.5176ZM94.0749 24.6279L110.01 30.136L146.51 42.7527L173.304 79.0023L147.663 97.1271L95.2279 79.0023L68.434 42.7527L94.0749 24.6279ZM184.664 148.125L185.568 147.486L187.416 148.125L243.547 167.528L245.395 168.166L246.339 169.444L275.022 208.249L275.966 209.526L275.063 210.165L247.614 229.567L246.711 230.206L244.863 229.567L188.732 210.165L186.884 209.526L185.939 208.249L157.257 169.444L156.312 168.166L157.216 167.528L184.664 148.125ZM268.574 206.971L241.78 170.721L189.345 152.597L163.704 170.721L190.498 206.971L242.933 225.096L268.574 206.971Z" fill="url(#paint1_radial_16927_5720)" data-v-418b1cd4=""></path> <path fill-rule="evenodd" clip-rule="evenodd" d="M183.374 19.5176L182.471 20.1564L155.022 39.5587L154.119 40.1975L155.063 41.4751L183.745 80.2799L184.69 81.5575L186.538 82.1963L242.669 101.599L244.517 102.237L245.42 101.599L272.869 82.1963L273.773 81.5575L272.828 80.2799L244.146 41.4751L243.201 40.1975L241.353 39.5587L185.222 20.1564L183.374 19.5176ZM239.586 42.7527L266.38 79.0023L240.739 97.1271L188.305 79.0023L161.511 42.7527L187.152 24.6279L239.586 42.7527ZM277.691 147.504L276.787 148.143L249.339 167.545L248.435 168.184L249.379 169.461L278.062 208.266L279.006 209.544L280.854 210.183L336.985 229.585L338.833 230.224L339.737 229.585L367.185 210.183L368.089 209.544L367.145 208.266L338.462 169.461L337.518 168.184L335.67 167.545L279.539 148.143L277.691 147.504ZM333.903 170.739L360.697 206.989L335.056 225.113L282.621 206.989L255.827 170.739L281.468 152.614L333.903 170.739ZM275.541 84.1505L276.445 83.5117L278.293 84.1505L334.424 103.553L336.272 104.192L337.216 105.469L365.898 144.274L366.843 145.552L365.939 146.19L338.491 165.593L337.587 166.232L335.739 165.593L279.608 146.19L277.76 145.552L276.816 144.274L248.133 105.469L247.189 104.192L248.093 103.553L275.541 84.1505ZM359.451 142.996L332.657 106.747L280.222 88.6221L254.581 106.747L281.375 142.996L333.81 161.121L359.451 142.996ZM184.331 83.5117L183.427 84.1505L155.979 103.553L155.075 104.192L156.02 105.469L184.702 144.274L185.646 145.552L187.494 146.19L243.625 165.593L245.473 166.232L246.377 165.593L273.825 146.19L274.729 145.552L273.785 144.274L245.102 105.469L244.158 104.192L242.31 103.553L186.179 84.1505L184.331 83.5117ZM240.543 106.747L267.337 142.996L241.696 161.121L189.261 142.996L162.467 106.747L188.108 88.6221L240.543 106.747ZM91.037 84.1505L91.9407 83.5117L93.7887 84.1505L149.92 103.553L151.768 104.192L152.712 105.469L181.395 144.274L182.339 145.552L181.435 146.19L153.987 165.593L153.083 166.232L151.235 165.593L95.1041 146.19L93.2561 145.552L92.3118 144.274L63.6293 105.469L62.6849 104.192L63.5886 103.553L91.037 84.1505ZM174.947 142.996L148.153 106.747L95.718 88.6221L70.077 106.747L96.8709 142.996L149.306 161.121L174.947 142.996ZM90.2976 19.5176L89.3939 20.1564L61.9456 39.5587L61.0419 40.1975L61.9862 41.4751L90.6688 80.2799L91.6132 81.5575L93.4612 82.1963L149.592 101.599L151.44 102.237L152.344 101.599L179.792 82.1963L180.696 81.5575L179.752 80.2799L151.069 41.4751L150.125 40.1975L148.277 39.5587L109.928 26.3032L92.1457 20.1564L90.2976 19.5176ZM94.0749 24.6279L110.01 30.136L146.51 42.7527L173.304 79.0023L147.663 97.1271L95.2279 79.0023L68.434 42.7527L94.0749 24.6279ZM184.664 148.125L185.568 147.486L187.416 148.125L243.547 167.528L245.395 168.166L246.339 169.444L275.022 208.249L275.966 209.526L275.063 210.165L247.614 229.567L246.711 230.206L244.863 229.567L188.732 210.165L186.884 209.526L185.939 208.249L157.257 169.444L156.312 168.166L157.216 167.528L184.664 148.125ZM268.574 206.971L241.78 170.721L189.345 152.597L163.704 170.721L190.498 206.971L242.933 225.096L268.574 206.971Z" fill="url(#paint2_linear_16927_5720)" data-v-418b1cd4=""></path></g> <path fill-rule="evenodd" clip-rule="evenodd" d="M185.898 22.9325L240.785 41.9048L268.832 79.8493L241.992 98.8215L187.105 79.8493L159.058 41.9048L185.898 22.9325ZM157.814 41.4746L185.262 22.0723L241.393 41.4746L270.076 80.2794L242.628 99.6818L186.497 80.2794L157.814 41.4746ZM280.215 150.919L335.102 169.891L363.148 207.836L336.308 226.808L281.422 207.836L253.375 169.891L280.215 150.919ZM252.131 169.461L279.579 150.059L335.71 169.461L364.393 208.266L336.944 227.668L280.813 208.266L252.131 169.461ZM333.856 105.899L278.97 86.9266L252.13 105.899L280.177 143.843L335.063 162.816L361.903 143.843L333.856 105.899ZM278.334 86.0664L250.886 105.469L279.568 144.274L335.699 163.676L363.147 144.274L334.465 105.469L278.334 86.0664ZM186.855 86.9266L241.741 105.899L269.788 143.843L242.948 162.816L188.062 143.843L160.015 105.899L186.855 86.9266ZM158.771 105.469L186.219 86.0664L242.35 105.469L271.032 144.274L243.584 163.676L187.453 144.274L158.771 105.469ZM149.352 105.899L94.4652 86.9266L67.6253 105.899L95.6721 143.843L150.559 162.816L177.399 143.843L149.352 105.899ZM93.8293 86.0664L66.381 105.469L95.0636 144.274L151.195 163.676L178.643 144.274L149.96 105.469L93.8293 86.0664ZM92.8219 22.9325L109.982 28.8643L147.708 41.9048L175.755 79.8493L148.915 98.8215L94.0287 79.8493L65.982 41.9048L92.8219 22.9325ZM64.7377 41.4746L92.186 22.0723L109.969 28.2191L148.317 41.4746L177 80.2794L149.551 99.6818L93.4203 80.2794L64.7377 41.4746ZM242.978 169.874L188.092 150.901L161.252 169.874L189.298 207.818L244.185 226.79L271.025 207.818L242.978 169.874ZM187.456 150.041L160.007 169.443L188.69 208.248L244.821 227.651L272.269 208.248L243.587 169.443L187.456 150.041Z" fill="url(#paint3_radial_16927_5720)" data-v-418b1cd4=""></path> <path fill-rule="evenodd" clip-rule="evenodd" d="M185.898 22.9325L240.785 41.9048L268.832 79.8493L241.992 98.8215L187.105 79.8493L159.058 41.9048L185.898 22.9325ZM157.814 41.4746L185.262 22.0723L241.393 41.4746L270.076 80.2794L242.628 99.6818L186.497 80.2794L157.814 41.4746ZM280.215 150.919L335.102 169.891L363.148 207.836L336.308 226.808L281.422 207.836L253.375 169.891L280.215 150.919ZM252.131 169.461L279.579 150.059L335.71 169.461L364.393 208.266L336.944 227.668L280.813 208.266L252.131 169.461ZM333.856 105.899L278.97 86.9266L252.13 105.899L280.177 143.843L335.063 162.816L361.903 143.843L333.856 105.899ZM278.334 86.0664L250.886 105.469L279.568 144.274L335.699 163.676L363.147 144.274L334.465 105.469L278.334 86.0664ZM186.855 86.9266L241.741 105.899L269.788 143.843L242.948 162.816L188.062 143.843L160.015 105.899L186.855 86.9266ZM158.771 105.469L186.219 86.0664L242.35 105.469L271.032 144.274L243.584 163.676L187.453 144.274L158.771 105.469ZM149.352 105.899L94.4652 86.9266L67.6253 105.899L95.6721 143.843L150.559 162.816L177.399 143.843L149.352 105.899ZM93.8293 86.0664L66.381 105.469L95.0636 144.274L151.195 163.676L178.643 144.274L149.96 105.469L93.8293 86.0664ZM92.8219 22.9325L109.982 28.8643L147.708 41.9048L175.755 79.8493L148.915 98.8215L94.0287 79.8493L65.982 41.9048L92.8219 22.9325ZM64.7377 41.4746L92.186 22.0723L109.969 28.2191L148.317 41.4746L177 80.2794L149.551 99.6818L93.4203 80.2794L64.7377 41.4746ZM242.978 169.874L188.092 150.901L161.252 169.874L189.298 207.818L244.185 226.79L271.025 207.818L242.978 169.874ZM187.456 150.041L160.007 169.443L188.69 208.248L244.821 227.651L272.269 208.248L243.587 169.443L187.456 150.041Z" fill="url(#paint4_linear_16927_5720)" data-v-418b1cd4=""></path> <path d="M147.638 61.0758L156.726 61.0758M147.922 61.0759L147.922 70.1641" stroke="white" stroke-width="0.568015" data-v-418b1cd4=""></path> <path d="M147.638 179.223L156.726 179.223M147.922 179.223L147.922 170.135" stroke="white" stroke-width="0.568015" data-v-418b1cd4=""></path> <path d="M288.506 61.0758L279.418 61.0758M288.222 61.0759L288.222 70.1641" stroke="white" stroke-width="0.568015" data-v-418b1cd4=""></path> <path d="M288.506 179.223L279.418 179.223M288.222 179.223L288.222 170.135" stroke="white" stroke-width="0.568015" data-v-418b1cd4=""></path> <g filter="url(#filter1_i_16927_5720)" data-v-418b1cd4=""><path d="M303.485 73.3664C288.09 60.256 286.238 37.1479 299.348 21.7531C312.459 6.3582 335.567 4.50628 350.962 17.6167C366.357 30.7271 368.209 53.8352 355.098 69.2301C341.988 84.6249 318.88 86.4769 303.485 73.3664Z" fill="url(#paint5_radial_16927_5720)" data-v-418b1cd4=""></path></g> <circle cx="218.224" cy="119.616" r="45.7993" fill="url(#paint6_linear_16927_5720)" data-v-418b1cd4=""></circle> <circle cx="218.224" cy="119.616" r="45.7993" fill="url(#paint7_radial_16927_5720)" data-v-418b1cd4=""></circle> <circle cx="218.224" cy="119.616" r="45.7993" fill="url(#paint8_radial_16927_5720)" data-v-418b1cd4=""></circle> <g filter="url(#filter2_f_16927_5720)" data-v-418b1cd4=""><circle cx="218.224" cy="119.615" r="54.6852" fill="url(#paint9_linear_16927_5720)" data-v-418b1cd4=""></circle> <circle cx="218.224" cy="119.615" r="54.6852" fill="url(#paint10_radial_16927_5720)" data-v-418b1cd4=""></circle></g> <defs data-v-418b1cd4=""><filter id="filter0_f_16927_5720" x="41.9726" y="0.448151" width="345.186" height="248.846" filterUnits="userSpaceOnUse" color-interpolation-filters="sRGB" data-v-418b1cd4=""><feFlood flood-opacity="0" result="BackgroundImageFix" data-v-418b1cd4=""></feFlood> <feBlend mode="normal" in="SourceGraphic" in2="BackgroundImageFix" result="shape" data-v-418b1cd4=""></feBlend> <feGaussianBlur stdDeviation="9.53471" result="effect1_foregroundBlur_16927_5720" data-v-418b1cd4=""></feGaussianBlur></filter> <filter id="filter1_i_16927_5720" x="290.609" y="8.87695" width="73.2275" height="73.2285" filterUnits="userSpaceOnUse" color-interpolation-filters="sRGB" data-v-418b1cd4=""><feFlood flood-opacity="0" result="BackgroundImageFix" data-v-418b1cd4=""></feFlood> <feBlend mode="normal" in="SourceGraphic" in2="BackgroundImageFix" result="shape" data-v-418b1cd4=""></feBlend> <feColorMatrix in="SourceAlpha" type="matrix" values="0 0 0 0 0 0 0 0 0 0 0 0 0 0 0 0 0 0 127 0" result="hardAlpha" data-v-418b1cd4=""></feColorMatrix> <feOffset data-v-418b1cd4=""></feOffset> <feGaussianBlur stdDeviation="7.70514" data-v-418b1cd4=""></feGaussianBlur> <feComposite in2="hardAlpha" operator="arithmetic" k2="-1" k3="1" data-v-418b1cd4=""></feComposite> <feColorMatrix type="matrix" values="0 0 0 0 0.844 0 0 0 0 0.5125 0 0 0 0 1 0 0 0 0.56 0" data-v-418b1cd4=""></feColorMatrix> <feBlend mode="normal" in2="shape" result="effect1_innerShadow_16927_5720" data-v-418b1cd4=""></feBlend></filter> <filter id="filter2_f_16927_5720" x="116.102" y="17.4928" width="204.244" height="204.245" filterUnits="userSpaceOnUse" color-interpolation-filters="sRGB" data-v-418b1cd4=""><feFlood flood-opacity="0" result="BackgroundImageFix" data-v-418b1cd4=""></feFlood> <feBlend mode="normal" in="SourceGraphic" in2="BackgroundImageFix" result="shape" data-v-418b1cd4=""></feBlend> <feGaussianBlur stdDeviation="23.7184" result="effect1_foregroundBlur_16927_5720" data-v-418b1cd4=""></feGaussianBlur></filter> <radialGradient id="paint0_radial_16927_5720" cx="0" cy="0" r="1" gradientUnits="userSpaceOnUse" gradientTransform="translate(218.032 118.213) rotate(-29.0939) scale(87.4804 80.2126)" data-v-418b1cd4=""><stop offset="0.0001" stop-color="#F5F5F5" stop-opacity="0.4" data-v-418b1cd4=""></stop> <stop offset="0.539562" stop-color="#959595" stop-opacity="0.3" data-v-418b1cd4=""></stop> <stop offset="1" stop-opacity="0" data-v-418b1cd4=""></stop></radialGradient> <radialGradient id="paint1_radial_16927_5720" cx="0" cy="0" r="1" gradientUnits="userSpaceOnUse" gradientTransform="translate(207.13 138.57) rotate(-39.4745) scale(193.914 128.927)" data-v-418b1cd4=""><stop offset="0.0693272" stop-color="#3646D2" data-v-418b1cd4=""></stop> <stop offset="1" stop-color="#CF36D2" stop-opacity="0" data-v-418b1cd4=""></stop></radialGradient> <linearGradient id="paint2_linear_16927_5720" x1="150.234" y1="192.305" x2="285.432" y2="110.968" gradientUnits="userSpaceOnUse" data-v-418b1cd4=""><stop offset="0.28125" stop-color="white" data-v-418b1cd4=""></stop> <stop offset="1" stop-color="white" stop-opacity="0" data-v-418b1cd4=""></stop></linearGradient> <radialGradient id="paint3_radial_16927_5720" cx="0" cy="0" r="1" gradientUnits="userSpaceOnUse" gradientTransform="translate(218.304 119.29) rotate(-40.9792) scale(240.252 221.706)" data-v-418b1cd4=""><stop offset="0.265303" stop-color="#BEFFDC" data-v-418b1cd4=""></stop> <stop offset="0.686977" stop-color="#CF36D2" stop-opacity="0" data-v-418b1cd4=""></stop></radialGradient> <linearGradient id="paint4_linear_16927_5720" x1="105.058" y1="208.877" x2="328.237" y2="104.062" gradientUnits="userSpaceOnUse" data-v-418b1cd4=""><stop offset="0.28125" stop-color="white" data-v-418b1cd4=""></stop> <stop offset="1" stop-color="white" stop-opacity="0" data-v-418b1cd4=""></stop></linearGradient> <radialGradient id="paint5_radial_16927_5720" cx="0" cy="0" r="1" gradientUnits="userSpaceOnUse" gradientTransform="translate(347.253 21.5529) rotate(128.56) scale(78.5804 69.9856)" data-v-418b1cd4=""><stop stop-color="#182069" data-v-418b1cd4=""></stop> <stop offset="0.723958" stop-color="#202DA2" data-v-418b1cd4=""></stop> <stop offset="0.880208" stop-color="#FFE7D1" data-v-418b1cd4=""></stop></radialGradient> <linearGradient id="paint6_linear_16927_5720" x1="218.224" y1="75.635" x2="172.425" y2="149.131" gradientUnits="userSpaceOnUse" data-v-418b1cd4=""><stop stop-color="#7ABFFF" data-v-418b1cd4=""></stop> <stop offset="0.270542" stop-color="#A5D4FF" data-v-418b1cd4=""></stop> <stop offset="0.72557" stop-color="#A5DEFF" stop-opacity="0" data-v-418b1cd4=""></stop></linearGradient> <radialGradient id="paint7_radial_16927_5720" cx="0" cy="0" r="1" gradientUnits="userSpaceOnUse" gradientTransform="translate(218.224 116.066) rotate(137.414) scale(49.4768 91.7818)" data-v-418b1cd4=""><stop stop-color="#000AFF" data-v-418b1cd4=""></stop> <stop offset="1" stop-color="white" stop-opacity="0" data-v-418b1cd4=""></stop></radialGradient> <radialGradient id="paint8_radial_16927_5720" cx="0" cy="0" r="1" gradientUnits="userSpaceOnUse" gradientTransform="translate(218.224 119.616) rotate(90) scale(43.9807)" data-v-418b1cd4=""><stop offset="0.223958" stop-color="#A5FBFF" data-v-418b1cd4=""></stop> <stop offset="0.385417" stop-color="#86A1FF" stop-opacity="0.7" data-v-418b1cd4=""></stop> <stop offset="0.729167" stop-color="#8F00D2" stop-opacity="0.29" data-v-418b1cd4=""></stop> <stop offset="1" stop-color="#120698" stop-opacity="0" data-v-418b1cd4=""></stop></radialGradient> <linearGradient id="paint9_linear_16927_5720" x1="218.224" y1="67.1011" x2="163.539" y2="154.856" gradientUnits="userSpaceOnUse" data-v-418b1cd4=""><stop stop-color="#7ABFFF" data-v-418b1cd4=""></stop> <stop offset="0.270542" stop-color="#A5D4FF" data-v-418b1cd4=""></stop> <stop offset="0.72557" stop-color="#A5DEFF" stop-opacity="0" data-v-418b1cd4=""></stop></linearGradient> <radialGradient id="paint10_radial_16927_5720" cx="0" cy="0" r="1" gradientUnits="userSpaceOnUse" gradientTransform="translate(218.224 119.615) rotate(90) scale(40.4788 37.6398)" data-v-418b1cd4=""><stop stop-color="#98E6FF" data-v-418b1cd4=""></stop> <stop offset="1" stop-color="white" stop-opacity="0" data-v-418b1cd4=""></stop></radialGradient></defs></svg>