<svg width="872" height="223" viewBox="0 0 872 223" fill="none" xmlns="http://www.w3.org/2000/svg">
<g clip-path="url(#clip0_477_1979)">
<path d="M870.84 139.23L837.66 81.68C837.142 80.8251 836.413 80.1182 835.542 79.6276C834.672 79.137 833.689 78.8792 832.69 78.8792C831.691 78.8792 830.708 79.137 829.838 79.6276C828.967 80.1182 828.238 80.8251 827.72 81.68L794.54 139.23C794.151 139.93 793.929 140.71 793.89 141.51C793.837 142.287 793.94 143.066 794.193 143.803C794.446 144.539 794.844 145.218 795.363 145.798C795.882 146.379 796.512 146.849 797.215 147.183C797.919 147.516 798.682 147.706 799.46 147.74C801.73 147.79 803.46 146.65 804.87 144.21L810 135.29C810.328 134.715 810.803 134.238 811.375 133.906C811.948 133.574 812.598 133.399 813.26 133.4H852C852.662 133.4 853.311 133.575 853.884 133.907C854.456 134.239 854.931 134.716 855.26 135.29L860.39 144.21C861.68 146.52 863.39 147.67 865.53 147.74C866.303 147.769 867.074 147.643 867.798 147.369C868.521 147.095 869.183 146.679 869.742 146.144C870.302 145.61 870.748 144.969 871.055 144.258C871.362 143.548 871.524 142.784 871.53 142.01C871.509 141.044 871.273 140.094 870.84 139.23ZM843.17 121.93H822.17C821.72 121.928 821.278 121.809 820.889 121.583C820.5 121.357 820.177 121.034 819.952 120.644C819.727 120.254 819.609 119.812 819.609 119.362C819.608 118.912 819.726 118.47 819.95 118.08L830.5 99.87C830.726 99.4796 831.05 99.1555 831.441 98.9301C831.831 98.7048 832.274 98.5862 832.725 98.5862C833.176 98.5862 833.619 98.7048 834.009 98.9301C834.4 99.1555 834.724 99.4796 834.95 99.87L845.43 118.08C845.656 118.473 845.774 118.919 845.771 119.372C845.769 119.826 845.647 120.27 845.418 120.661C845.188 121.052 844.86 121.375 844.465 121.598C844.07 121.821 843.623 121.936 843.17 121.93ZM220.33 88.34C216.166 68.7647 206.796 50.676 193.209 35.9814C179.622 21.2868 162.322 10.5309 143.132 4.8481C123.943 -0.834731 103.575 -1.2339 84.178 3.69269C64.7806 8.61927 47.0721 18.689 32.9199 32.84C27.8701 37.8885 23.3128 43.4068 19.3099 49.32C18.1261 50.9046 17.0631 52.576 16.1299 54.32C8.35816 67.3518 3.33481 81.8358 1.36893 96.8811C-0.596953 111.926 0.536203 127.215 4.69867 141.806C8.86114 156.397 15.9649 169.982 25.573 181.726C35.1811 193.47 47.0903 203.123 60.568 210.093C74.0457 217.063 88.8069 221.201 103.944 222.254C119.08 223.307 134.272 221.252 148.585 216.215C162.898 211.178 176.029 203.266 187.17 192.966C198.311 182.665 207.228 170.194 213.37 156.32C214.035 154.944 214.623 153.532 215.13 152.09C222.961 131.903 224.788 109.882 220.39 88.68L220.33 88.34ZM181.76 37.49C182.4 38.1 183.03 38.72 183.66 39.35C193.343 48.9994 200.982 60.5018 206.12 73.17C206.236 73.4553 206.273 73.7665 206.228 74.0712C206.182 74.3758 206.056 74.6626 205.862 74.9017C205.668 75.1408 205.413 75.3234 205.124 75.4304C204.835 75.5374 204.523 75.5649 204.22 75.51C200.96 74.9573 197.655 74.7229 194.35 74.81C193.127 74.8368 191.935 74.4267 190.987 73.6532C190.039 72.8796 189.399 71.7935 189.18 70.59C187.411 60.1974 184.548 50.0209 180.64 40.23L180.01 38.72C179.907 38.4892 179.888 38.2299 179.955 37.9865C180.023 37.7431 180.172 37.5306 180.379 37.3853C180.586 37.2401 180.836 37.1711 181.088 37.1902C181.34 37.2093 181.578 37.3153 181.76 37.49ZM192.33 102.73C192.326 102.478 192.403 102.231 192.549 102.025C192.695 101.819 192.903 101.665 193.142 101.585C193.381 101.504 193.64 101.503 193.88 101.579C194.121 101.655 194.331 101.806 194.48 102.01C195.32 103.18 196.12 104.36 196.89 105.54C197.91 107.107 198.86 108.667 199.74 110.22C200.011 110.69 200.126 111.235 200.066 111.774C200.007 112.314 199.777 112.82 199.41 113.22C198.217 114.553 196.923 115.907 195.53 117.28L194 118.82C193.858 118.973 193.672 119.078 193.467 119.121C193.263 119.163 193.05 119.14 192.859 119.055C192.668 118.97 192.509 118.827 192.403 118.647C192.298 118.467 192.251 118.258 192.27 118.05C192.34 116.38 192.38 114.7 192.41 113.05C192.44 109.56 192.42 106.13 192.33 102.73ZM52.3299 28.4C69.5903 16.04 90.3006 9.42115 111.53 9.47999C117.155 9.4766 122.77 9.93482 128.32 10.85C128.641 10.9074 128.939 11.0554 129.178 11.2765C129.418 11.4975 129.589 11.7825 129.673 12.0978C129.756 12.4131 129.747 12.7456 129.647 13.056C129.547 13.3665 129.361 13.642 129.11 13.85C123.79 18.03 118.84 24.21 114.46 32.22C113.942 33.1674 113.118 33.9115 112.123 34.331C111.128 34.7504 110.02 34.8206 108.98 34.53C95.3529 30.5451 81.194 28.68 66.9999 29C62.3673 29.151 57.7518 29.6389 53.1899 30.46C52.937 30.496 52.6793 30.4467 52.4575 30.32C52.2357 30.1932 52.0624 29.9963 51.9649 29.7601C51.8675 29.5239 51.8515 29.2621 51.9194 29.0158C51.9873 28.7695 52.1352 28.5528 52.3399 28.4H52.3299ZM37.7699 180.74C35.6299 176.69 38.3999 167.32 52.4799 153.08C52.8273 152.73 53.097 152.31 53.2712 151.848C53.4454 151.387 53.5203 150.893 53.4911 150.401C53.4618 149.908 53.3291 149.427 53.1014 148.99C52.8738 148.552 52.5564 148.167 52.1699 147.86L50.4899 146.52C49.8147 145.972 48.9602 145.694 48.0918 145.741C47.2235 145.787 46.4032 146.154 45.7899 146.77L45.2399 147.32C38.2399 154.54 33.2399 161.23 30.5199 167.24C30.3419 167.629 30.0633 167.963 29.7129 168.208C29.3625 168.452 28.9531 168.599 28.5269 168.633C28.1007 168.667 27.6733 168.586 27.2888 168.399C26.9044 168.212 26.5768 167.926 26.3399 167.57C15.3401 150.928 9.49918 131.409 9.54995 111.46C9.54484 104.309 10.2889 97.1763 11.7699 90.18C11.758 89.9148 11.8519 89.6557 12.031 89.4597C12.2101 89.2637 12.4597 89.1469 12.7249 89.135C12.9902 89.1231 13.2492 89.217 13.4452 89.3961C13.6412 89.5752 13.758 89.8248 13.7699 90.09C16.1762 97.713 19.6472 104.958 24.0799 111.61C31.0307 122.052 39.401 131.476 48.9499 139.61C52.3699 142.61 55.9499 145.44 59.7399 148.2C67.5829 153.94 75.8537 159.072 84.4799 163.55C88.3899 165.55 92.2 167.55 96.1 169.27C97.1728 169.758 98.3326 170.026 99.5107 170.059C100.689 170.091 101.862 169.888 102.96 169.46C104.8 168.74 106.65 167.99 108.51 167.21C109.491 166.801 110.293 166.053 110.769 165.102C111.244 164.151 111.362 163.061 111.1 162.03C111.03 161.76 110.98 161.55 110.95 161.42C107.737 147.407 106.061 133.086 105.95 118.71V118.16C105.95 117.33 105.95 116.49 105.95 115.66C105.95 115.4 105.95 114.95 105.95 114.66V114.34C105.95 113.39 105.95 112.44 105.95 111.48C105.95 108.87 106.09 106.27 106.23 103.7C107.23 85.31 110.3 68.03 115.23 53.5C115.45 52.8541 115.405 52.1475 115.105 51.5347C114.805 50.9219 114.275 50.4527 113.63 50.23C112.31 49.79 111 49.36 109.7 48.95C109.063 48.7495 108.373 48.8056 107.778 49.1064C107.182 49.4071 106.727 49.9287 106.51 50.56C101.14 66.34 97.8199 85.07 96.9299 104.89C96.8758 106.126 96.5146 107.329 95.8791 108.391C95.2436 109.452 94.3538 110.338 93.2899 110.97C82.1929 117.488 71.5578 124.761 61.4599 132.74C60.5176 133.489 59.3431 133.885 58.1397 133.859C56.9362 133.834 55.7796 133.388 54.8699 132.6C45.9943 125.048 38.213 116.297 31.7499 106.6C20.0799 88.68 17.2999 71.8 23.9399 59.08L23.9899 58.99C24.8399 57.58 25.7199 56.2 26.6299 54.83C34.2599 44.74 48.45 38.89 67.27 38.23C68.4566 38.19 69.6566 38.17 70.8699 38.17C83.2486 38.3045 95.5477 40.1693 107.41 43.71L108.24 43.96L108.88 44.14C111.793 45.0133 114.71 45.9733 117.63 47.02L117.84 47.09L120.12 47.94L120.84 48.21L121.53 48.47C127.804 50.8979 133.94 53.6687 139.91 56.77C151.267 62.6339 161.954 69.7156 171.78 77.89C153.91 81.98 133.15 89.89 112.26 100.53C111.784 100.769 111.381 101.13 111.091 101.576C110.801 102.023 110.635 102.538 110.61 103.07C110.53 104.36 110.44 106.96 110.37 109.07C110.36 109.366 110.428 109.659 110.567 109.921C110.707 110.182 110.912 110.403 111.163 110.56C111.414 110.717 111.703 110.805 111.999 110.815C112.295 110.826 112.588 110.759 112.85 110.62C133.52 99.76 154.16 91.62 171.85 87.36C173.448 86.9716 174.844 86.0034 175.768 84.6433C176.692 83.2833 177.078 81.6284 176.85 80C176.523 77.64 176.157 75.3067 175.75 73C175.238 70.1412 173.671 67.5788 171.36 65.82C162.789 59.3144 153.676 53.5566 144.12 48.61C137.629 45.2342 130.951 42.2294 124.12 39.61C123.782 39.4822 123.475 39.2827 123.221 39.0253C122.967 38.7679 122.771 38.4586 122.648 38.1186C122.524 37.7786 122.476 37.416 122.505 37.0555C122.535 36.695 122.642 36.3452 122.82 36.03C129.73 23.66 137.95 16.74 145.96 16.74H146.21C155.66 16.91 165.08 26.74 172.05 43.74C175.834 53.1696 178.589 62.9796 180.27 73C181.07 77.6 181.71 82.35 182.19 87.22L182.06 87.3L182.23 87.47C183.047 95.9073 183.381 104.385 183.23 112.86C183.13 118.36 182.84 123.78 182.37 129.09C168.179 140.321 152.962 150.191 136.92 158.57C131.28 161.57 125.63 164.34 120.05 166.91L119.79 167.03L118.5 167.61C113.873 169.71 109.3 171.643 104.78 173.41L104.02 173.7L103.02 174.07L100.76 174.93L100.14 175.16L97.41 176.16L97.0799 176.29C88.1969 179.53 79.0807 182.09 69.8099 183.95C49.4999 187.84 39.9999 184.84 37.7699 180.74ZM65.7199 141.15C75.5515 133.244 85.9345 126.049 96.7899 119.62C96.9628 133.667 98.5475 147.66 101.52 161.39C97.24 159.557 92.9766 157.557 88.7299 155.39C80.7144 151.226 73.0228 146.466 65.7199 141.15ZM124.72 212.61C120.356 213.172 115.96 213.453 111.56 213.45C92.0381 213.505 72.9169 207.913 56.4999 197.35C56.2558 197.193 56.068 196.962 55.9637 196.691C55.8594 196.419 55.844 196.122 55.9196 195.842C55.9953 195.561 56.1582 195.312 56.3847 195.13C56.6113 194.948 56.8897 194.843 57.1799 194.83H57.9499C62.5036 194.503 67.0325 193.892 71.5099 193C83.196 190.621 94.6551 187.238 105.76 182.89C106.286 182.695 106.867 182.713 107.38 182.939C107.893 183.164 108.298 183.581 108.51 184.1C113.23 195.58 119.03 204.25 125.51 209.77C125.744 209.973 125.915 210.239 126.004 210.536C126.092 210.833 126.094 211.15 126.009 211.448C125.924 211.746 125.755 212.014 125.524 212.219C125.292 212.425 125.006 212.561 124.7 212.61H124.72ZM167.84 185.38C160.55 199.7 151.59 207.74 142.9 207.58C133.45 207.41 124.03 197.58 117.05 180.58C116.839 180.06 116.841 179.477 117.054 178.958C117.267 178.438 117.675 178.023 118.19 177.8L118.41 177.71C118.867 177.508 119.38 177.472 119.86 177.61C132.215 181.183 144.999 183.057 157.86 183.18C159.17 183.18 160.47 183.18 161.75 183.11C163.26 183.06 164.75 182.98 166.21 182.86C166.511 182.85 166.81 182.919 167.077 183.06C167.343 183.201 167.569 183.408 167.731 183.662C167.894 183.916 167.987 184.208 168.003 184.509C168.018 184.811 167.955 185.111 167.82 185.38H167.84ZM171 173.06C167.821 173.521 164.62 173.804 161.41 173.91C152.798 174.15 144.185 173.463 135.72 171.86C135.483 171.816 135.266 171.698 135.1 171.523C134.933 171.349 134.826 171.127 134.793 170.888C134.76 170.649 134.802 170.406 134.915 170.193C135.027 169.98 135.204 169.807 135.42 169.7C137.35 168.7 139.29 167.7 141.22 166.7C154.191 159.866 166.672 152.137 178.57 143.57C178.755 143.436 178.975 143.36 179.203 143.351C179.431 143.343 179.657 143.403 179.851 143.523C180.045 143.643 180.199 143.818 180.293 144.026C180.387 144.234 180.418 144.465 180.38 144.69C178.951 153.461 176.817 162.102 174 170.53C173.781 171.187 173.386 171.771 172.856 172.217C172.327 172.664 171.684 172.955 171 173.06ZM186 181.15C185.23 181.97 184.45 182.78 183.65 183.58C182.257 184.973 180.833 186.307 179.38 187.58C179.186 187.755 178.938 187.858 178.677 187.871C178.416 187.883 178.159 187.805 177.949 187.65C177.739 187.494 177.59 187.27 177.526 187.017C177.462 186.764 177.489 186.496 177.6 186.26L178.04 185.26C178.653 183.927 179.243 182.547 179.81 181.12C179.879 180.957 179.985 180.813 180.118 180.697C180.251 180.581 180.409 180.496 180.58 180.45C182.03 180.09 183.44 179.68 184.81 179.24C185.062 179.114 185.352 179.086 185.623 179.162C185.894 179.239 186.127 179.413 186.276 179.653C186.425 179.892 186.479 180.178 186.428 180.455C186.377 180.732 186.224 180.98 186 181.15ZM206.5 148.8C206.01 150.05 205.5 151.28 204.95 152.51C204.87 152.68 204.79 152.85 204.7 153.02C201.34 159.49 195.7 164.59 188.16 168.14C187.783 168.31 187.366 168.369 186.956 168.311C186.547 168.253 186.163 168.08 185.848 167.811C185.534 167.543 185.302 167.191 185.18 166.796C185.058 166.4 185.051 165.979 185.16 165.58C187.763 156.113 189.642 146.462 190.78 136.71C191.013 134.81 191.948 133.067 193.4 131.82C196.5 129.13 199.4 126.45 202.06 123.82C202.358 123.52 202.728 123.302 203.135 123.187C203.542 123.072 203.972 123.065 204.383 123.165C204.794 123.266 205.171 123.471 205.479 123.761C205.787 124.051 206.015 124.416 206.14 124.82C208.77 133.54 208.92 141.69 206.51 148.8H206.5ZM208.5 101.02C208.324 101.332 208.071 101.594 207.765 101.78C207.458 101.965 207.109 102.069 206.751 102.08C206.393 102.091 206.038 102.009 205.721 101.843C205.403 101.676 205.134 101.431 204.94 101.13L204.55 100.52C201.399 95.7024 197.907 91.1173 194.1 86.8C193.888 86.5539 193.751 86.2522 193.705 85.9306C193.659 85.609 193.706 85.2809 193.84 84.9853C193.975 84.6896 194.192 84.4387 194.465 84.2624C194.737 84.086 195.055 83.9915 195.38 83.99C204.52 83.99 209.31 86.25 210.77 88.99C212.07 91.31 211.7 95.34 208.55 101L208.5 101.02ZM213.43 114.5C213.426 114.646 213.372 114.787 213.277 114.898C213.182 115.009 213.052 115.085 212.908 115.112C212.764 115.139 212.615 115.115 212.486 115.046C212.358 114.976 212.257 114.865 212.2 114.73C212.09 114.46 211.97 114.18 211.85 113.91C211.741 113.663 211.699 113.391 211.728 113.122C211.758 112.853 211.859 112.597 212.02 112.38L212.39 111.89C212.84 111.31 213.48 111.4 213.48 112.04C213.53 112.89 213.51 113.63 213.48 114.5H213.43ZM537.07 90.38H575.41C576.222 90.3774 577.024 90.2029 577.763 89.8681C578.503 89.5332 579.163 89.0456 579.701 88.4372C580.238 87.8289 580.641 87.1136 580.882 86.3385C581.123 85.5633 581.197 84.7459 581.1 83.94C580.897 82.5409 580.193 81.263 579.119 80.3435C578.045 79.424 576.674 78.9253 575.26 78.94H527.65C526.132 78.9453 524.678 79.5507 523.604 80.6241C522.531 81.6975 521.925 83.1519 521.92 84.67V142C521.925 143.518 522.531 144.972 523.604 146.046C524.678 147.119 526.132 147.725 527.65 147.73H575.46C576.271 147.727 577.072 147.553 577.811 147.219C578.549 146.884 579.209 146.398 579.746 145.791C580.284 145.183 580.687 144.469 580.928 143.695C581.17 142.921 581.246 142.105 581.15 141.3C580.947 139.901 580.243 138.623 579.169 137.703C578.095 136.784 576.724 136.285 575.31 136.3H537.12C536.131 136.3 535.182 135.907 534.482 135.208C533.783 134.508 533.39 133.559 533.39 132.57V122.82C533.39 121.831 533.783 120.882 534.482 120.182C535.182 119.483 536.131 119.09 537.12 119.09H565.9C566.711 119.087 567.512 118.913 568.251 118.579C568.989 118.244 569.649 117.758 570.186 117.151C570.724 116.543 571.127 115.829 571.368 115.055C571.61 114.281 571.686 113.465 571.59 112.66C571.387 111.261 570.683 109.983 569.609 109.063C568.535 108.144 567.164 107.645 565.75 107.66H537.12C536.131 107.66 535.182 107.267 534.482 106.568C533.783 105.868 533.39 104.919 533.39 103.93V94.18C533.381 93.6843 533.47 93.1917 533.654 92.7311C533.837 92.2704 534.11 91.8509 534.457 91.4971C534.805 91.1433 535.219 90.8623 535.676 90.6705C536.133 90.4787 536.624 90.3799 537.12 90.38H537.07ZM654.26 112.66C649 109.31 641.92 107.59 633.03 107.59C621.27 107.59 615.34 104.72 615.34 98.98C615.34 93.24 621.27 90.38 633.03 90.38C639.436 90.3632 645.784 91.5927 651.72 94C655.17 95.05 657.56 93.81 658.89 90.46C660.04 87.46 658.51 84.63 655.36 83.2C648.312 80.2364 640.725 78.772 633.08 78.9C624.38 78.9 617.4 80.71 611.95 84.25C609.445 85.7891 607.388 87.9586 605.984 90.5416C604.58 93.1247 603.879 96.031 603.95 98.97C603.95 105.57 606.63 110.64 611.89 113.97C617.15 117.3 624.22 119.04 633.11 119.04C644.87 119.04 650.8 121.91 650.8 127.65C650.8 133.39 644.87 136.25 633.11 136.25H630.24C623.889 136.157 617.607 134.928 611.69 132.62C610.988 132.356 610.241 132.237 609.492 132.268C608.743 132.299 608.008 132.481 607.331 132.801C606.654 133.122 606.048 133.576 605.549 134.136C605.051 134.696 604.67 135.35 604.43 136.06C603.916 137.519 604 139.122 604.663 140.519C605.326 141.917 606.515 142.995 607.97 143.52C615.035 146.403 622.61 147.832 630.24 147.72H633.11C641.81 147.72 648.79 145.91 654.11 142.37C656.647 140.856 658.737 138.696 660.166 136.109C661.594 133.523 662.31 130.604 662.24 127.65C662.24 121.07 659.56 116 654.31 112.66H654.26ZM769.04 78.91C767.52 78.9126 766.063 79.5169 764.988 80.5906C763.912 81.6643 763.305 83.1202 763.3 84.64V142C763.362 143.48 763.993 144.878 765.062 145.903C766.13 146.928 767.554 147.5 769.035 147.5C770.516 147.5 771.939 146.928 773.008 145.903C774.077 144.878 774.708 143.48 774.77 142V84.64C774.765 83.1305 774.166 81.6836 773.104 80.6116C772.041 79.5395 770.599 78.9284 769.09 78.91H769.04ZM738.72 78.91H681.56C680.749 78.9112 679.947 79.0843 679.207 79.4181C678.468 79.7518 677.807 80.2385 677.27 80.8461C676.732 81.4537 676.329 82.1684 676.088 82.943C675.847 83.7176 675.772 84.5346 675.87 85.34C676.069 86.7409 676.772 88.0213 677.847 88.9415C678.922 89.8618 680.295 90.359 681.71 90.34H700.77C701.762 90.34 702.713 90.734 703.414 91.4354C704.116 92.1368 704.51 93.0881 704.51 94.08V142C704.513 142.811 704.687 143.612 705.021 144.351C705.355 145.089 705.842 145.749 706.449 146.286C707.057 146.824 707.771 147.227 708.545 147.469C709.318 147.71 710.135 147.786 710.94 147.69C712.341 147.486 713.62 146.781 714.54 145.705C715.46 144.629 715.957 143.255 715.94 141.84V94.12C715.939 93.6285 716.034 93.1415 716.222 92.6872C716.409 92.2328 716.685 91.82 717.032 91.4725C717.38 91.1249 717.793 90.8495 718.247 90.662C718.701 90.4745 719.188 90.3787 719.68 90.38H738.88C739.692 90.3772 740.494 90.2027 741.234 89.868C741.974 89.5332 742.635 89.0458 743.173 88.4376C743.712 87.8295 744.115 87.1144 744.358 86.3392C744.6 85.5641 744.676 84.7465 744.58 83.94C744.384 82.5406 743.687 81.2596 742.619 80.3347C741.55 79.4098 740.183 78.9036 738.77 78.91H738.72ZM497.39 136.27H459.22C458.227 136.27 457.275 135.876 456.572 135.175C455.869 134.474 455.473 133.523 455.47 132.53V84.79C455.485 83.3763 454.986 82.0052 454.066 80.9312C453.147 79.8572 451.869 79.1533 450.47 78.95C449.664 78.8526 448.847 78.9269 448.071 79.1681C447.296 79.4093 446.581 79.8119 445.973 80.3494C445.364 80.8869 444.877 81.5472 444.542 82.2867C444.207 83.0262 444.033 83.8282 444.03 84.64V142C444.035 143.52 444.642 144.976 445.718 146.049C446.793 147.123 448.25 147.727 449.77 147.73H497.57C498.381 147.729 499.183 147.556 499.923 147.222C500.662 146.888 501.323 146.402 501.86 145.794C502.398 145.186 502.801 144.472 503.042 143.697C503.283 142.922 503.357 142.105 503.26 141.3C503.067 139.888 502.363 138.597 501.281 137.67C500.199 136.743 498.814 136.245 497.39 136.27ZM310.46 90.38C313.476 90.3265 316.47 90.9028 319.251 92.0719C322.032 93.241 324.538 94.9774 326.61 97.17C327.428 97.955 328.457 98.4841 329.571 98.6925C330.685 98.9008 331.836 98.7793 332.882 98.3428C333.928 97.9064 334.824 97.1739 335.459 96.2354C336.095 95.297 336.443 94.1933 336.46 93.06C336.425 92.1659 336.193 91.2907 335.78 90.4971C335.366 89.7035 334.782 89.0112 334.07 88.47C329.167 83.8328 323.007 80.7433 316.358 79.5877C309.709 78.4321 302.868 79.2617 296.688 81.9727C290.508 84.6837 285.264 89.156 281.612 94.8305C277.96 100.505 276.061 107.13 276.153 113.878C276.244 120.625 278.323 127.196 282.128 132.769C285.934 138.342 291.297 142.67 297.549 145.212C303.8 147.754 310.662 148.397 317.276 147.061C323.891 145.725 329.965 142.469 334.74 137.7C335.745 136.608 336.29 135.169 336.258 133.685C336.227 132.201 335.623 130.786 334.573 129.737C333.523 128.688 332.107 128.086 330.623 128.057C329.139 128.027 327.701 128.573 326.61 129.58C324.521 131.743 322.009 133.453 319.23 134.604C316.452 135.755 313.467 136.322 310.46 136.27C307.442 136.285 304.451 135.701 301.66 134.553C298.869 133.405 296.333 131.715 294.199 129.581C292.065 127.447 290.375 124.911 289.227 122.12C288.079 119.329 287.495 116.338 287.51 113.32C287.458 110.313 288.025 107.328 289.176 104.55C290.327 101.771 292.037 99.2594 294.2 97.17C296.305 94.9907 298.833 93.2644 301.629 92.0968C304.425 90.9292 307.43 90.345 310.46 90.38ZM376.46 90.38H414.79C415.602 90.3772 416.404 90.2027 417.144 89.868C417.884 89.5332 418.545 89.0458 419.083 88.4376C419.622 87.8295 420.025 87.1144 420.268 86.3392C420.51 85.5641 420.586 84.7465 420.49 83.94C420.286 82.5391 419.581 81.2599 418.505 80.3402C417.429 79.4204 416.055 78.9229 414.64 78.94H366.94C365.421 78.9453 363.966 79.5503 362.89 80.6235C361.815 81.6966 361.208 83.151 361.2 84.67V142C361.208 143.519 361.815 144.973 362.89 146.047C363.966 147.12 365.421 147.725 366.94 147.73H414.74C415.552 147.729 416.354 147.555 417.094 147.222C417.834 146.888 418.495 146.402 419.033 145.794C419.572 145.187 419.975 144.472 420.218 143.698C420.46 142.923 420.536 142.106 420.44 141.3C420.236 139.899 419.531 138.62 418.455 137.7C417.379 136.78 416.005 136.283 414.59 136.3H376.41C375.919 136.3 375.433 136.203 374.98 136.015C374.527 135.827 374.115 135.551 373.769 135.204C373.422 134.857 373.148 134.444 372.961 133.99C372.774 133.537 372.679 133.051 372.68 132.56V122.8C372.679 122.309 372.774 121.823 372.961 121.37C373.148 120.916 373.422 120.503 373.769 120.156C374.115 119.809 374.527 119.533 374.98 119.345C375.433 119.157 375.919 119.06 376.41 119.06H405.18C405.992 119.059 406.794 118.885 407.534 118.552C408.274 118.218 408.935 117.732 409.473 117.124C410.012 116.517 410.415 115.802 410.658 115.028C410.9 114.253 410.976 113.436 410.88 112.63C410.676 111.229 409.971 109.95 408.895 109.03C407.819 108.11 406.445 107.613 405.03 107.63H376.41C375.919 107.63 375.433 107.533 374.98 107.345C374.527 107.157 374.115 106.881 373.769 106.534C373.422 106.187 373.148 105.774 372.961 105.32C372.774 104.867 372.679 104.381 372.68 103.89V94.16C372.673 93.666 372.765 93.1756 372.949 92.7172C373.134 92.2589 373.408 91.8418 373.755 91.4901C374.102 91.1384 374.515 90.8592 374.971 90.6686C375.427 90.4781 375.916 90.38 376.41 90.38H376.46Z" fill="#7B2BF9"/>
</g>
<defs>
<clipPath id="clip0_477_1979">
<rect width="872" height="223" fill="white"/>
</clipPath>
</defs>
</svg>
