<?xml version="1.0" encoding="utf-8"?>
<!-- Generator: Adobe Illustrator 19.2.1, SVG Export Plug-In . SVG Version: 6.00 Build 0)  -->
<svg version="1.1" id="layer" xmlns="http://www.w3.org/2000/svg" xmlns:xlink="http://www.w3.org/1999/xlink" x="0px" y="0px"
	 viewBox="0 0 652 652" style="enable-background:new 0 0 652 652;" xml:space="preserve">
<g id="Page-1">
	<g id="wordmark" fill="white">
		<path id="Fill-3" d="M86.7,347.2l-8.2-8.3c-3.1,2.9-6.3,5.2-9.5,6.9c-3.2,1.7-7,2.6-11.5,2.6c-3.5,0-6.7-0.7-9.6-2
			c-3-1.4-5.5-3.2-7.7-5.6c-2.2-2.4-3.8-5.1-5-8.3c-1.2-3.2-1.8-6.5-1.8-10.2c0-3.6,0.6-7,1.8-10.1c1.2-3.1,2.8-5.8,5-8.2
			c2.2-2.3,4.7-4.2,7.7-5.5c3-1.4,6.2-2,9.6-2c4.2,0,7.9,0.8,11.1,2.5c3.3,1.7,6.4,3.9,9.3,6.6l8.2-9.5c-1.7-1.7-3.6-3.2-5.5-4.6
			c-1.9-1.4-4.1-2.6-6.4-3.6c-2.3-1-4.8-1.8-7.6-2.3c-2.7-0.6-5.8-0.8-9.1-0.8c-5.6,0-10.6,1-15.2,3c-4.6,2-8.5,4.7-11.9,8.1
			c-3.3,3.4-5.9,7.4-7.8,12c-1.8,4.6-2.8,9.5-2.8,14.7c0,5.3,0.9,10.2,2.8,14.8c1.9,4.6,4.5,8.6,7.8,11.9c3.3,3.4,7.2,6,11.7,8
			s9.4,2.9,14.8,2.9c3.4,0,6.5-0.3,9.3-0.9c2.8-0.6,5.4-1.5,7.8-2.6c2.4-1.1,4.6-2.5,6.6-4.1C82.8,351,84.8,349.2,86.7,347.2"/>
		<path id="Fill-4" d="M252,305.3c0-2.4,1-4.5,3.1-6.2c2.1-1.7,5-2.5,8.7-2.5c3.3,0,6.6,0.6,9.8,1.9c3.2,1.3,6.5,3.1,9.8,5.6
			l6.8-9.7c-3.7-3-7.7-5.2-12-6.8c-4.2-1.6-9-2.3-14.3-2.3c-3.6,0-6.9,0.5-9.9,1.5c-3,1-5.6,2.4-7.8,4.3c-2.2,1.9-3.9,4.1-5.1,6.7
			c-1.2,2.6-1.8,5.5-1.8,8.7c0,3.4,0.5,6.3,1.6,8.6c1.1,2.4,2.6,4.4,4.7,6c2,1.7,4.6,3,7.6,4.2c3,1.1,6.5,2.1,10.3,3
			c3.4,0.8,6.1,1.6,8.3,2.4c2.1,0.8,3.8,1.6,5,2.4c1.2,0.9,2,1.8,2.5,2.9c0.4,1,0.7,2.2,0.7,3.5c0,2.8-1.2,5.1-3.5,6.8
			c-2.3,1.7-5.4,2.5-9.4,2.5c-4.6,0-8.6-0.8-12.2-2.4c-3.6-1.6-7.1-4-10.7-7l-7.7,9.1c4.4,3.9,9.1,6.9,14.2,8.8
			c5.1,1.9,10.5,2.9,16.1,2.9c3.8,0,7.3-0.5,10.5-1.5c3.2-1,5.9-2.4,8.1-4.3c2.3-1.9,4-4.2,5.3-6.9c1.3-2.7,1.9-5.8,1.9-9.2
			c0-3-0.5-5.7-1.5-7.9c-1-2.3-2.5-4.2-4.4-5.9c-1.9-1.7-4.4-3.1-7.3-4.3c-2.9-1.2-6.3-2.3-10.1-3.2c-3.5-0.8-6.3-1.6-8.6-2.4
			c-2.2-0.8-4-1.6-5.3-2.5c-1.3-0.9-2.2-1.9-2.6-2.9C252.2,308,252,306.8,252,305.3"/>
		<polyline id="Fill-5" points="393.8,306.3 393.8,358.3 406.4,358.3 406.4,285.8 392.8,285.8 370.7,320.1 348.6,285.8 335,285.8 
			335,358.3 347.7,358.3 347.7,306.5 370.4,340.5 370.8,340.5 393.8,306.3 		"/>
		<path id="Fill-6" d="M512.8,322.5c0,3.5-0.6,6.9-1.8,10.1c-1.2,3.2-2.9,5.9-5,8.2c-2.1,2.3-4.7,4.2-7.7,5.5c-3,1.4-6.3,2-9.9,2
			c-3.6,0-6.9-0.7-10-2.1c-3-1.4-5.7-3.3-7.8-5.6c-2.2-2.4-3.9-5.1-5.1-8.3c-1.2-3.2-1.8-6.5-1.8-10.1c0-3.5,0.6-6.9,1.8-10.1
			c1.2-3.2,2.9-5.9,5-8.2c2.1-2.3,4.7-4.2,7.7-5.5c3-1.4,6.3-2,9.9-2c3.6,0,6.9,0.7,10,2.1c3,1.4,5.7,3.3,7.8,5.6
			c2.2,2.4,3.9,5.1,5.1,8.3C512.2,315.6,512.8,318.9,512.8,322.5z M526.2,322.3c0-5.1-0.9-10-2.8-14.6c-1.9-4.6-4.5-8.6-7.8-12
			c-3.3-3.4-7.3-6.1-12-8.1c-4.6-2-9.8-3-15.4-3c-5.6,0-10.7,1-15.4,3c-4.6,2-8.7,4.7-12.1,8.2c-3.4,3.4-6,7.4-7.9,12
			c-1.9,4.6-2.8,9.4-2.8,14.6c0,5.1,0.9,10,2.8,14.6c1.9,4.6,4.5,8.6,7.8,12c3.3,3.4,7.3,6.1,12,8.1c4.6,2,9.8,3,15.4,3
			c5.6,0,10.7-1,15.4-3c4.6-2,8.7-4.7,12.1-8.2c3.4-3.4,6-7.4,7.9-12C525.3,332.3,526.2,327.4,526.2,322.3z"/>
		<path id="Fill-7" d="M579.4,305.3c0-2.4,1-4.5,3.1-6.2c2.1-1.7,5-2.5,8.7-2.5c3.3,0,6.6,0.6,9.8,1.9c3.2,1.3,6.5,3.1,9.8,5.6
			l6.8-9.7c-3.7-3-7.7-5.2-12-6.8c-4.2-1.6-9-2.3-14.3-2.3c-3.6,0-6.9,0.5-9.9,1.5c-3,1-5.6,2.4-7.8,4.3c-2.2,1.9-3.8,4.1-5.1,6.7
			c-1.2,2.6-1.8,5.5-1.8,8.7c0,3.4,0.5,6.3,1.6,8.6c1.1,2.4,2.6,4.4,4.7,6c2,1.7,4.6,3,7.6,4.2c3,1.1,6.5,2.1,10.3,3
			c3.4,0.8,6.1,1.6,8.3,2.4c2.1,0.8,3.8,1.6,5,2.4c1.2,0.9,2,1.8,2.5,2.9c0.4,1,0.7,2.2,0.7,3.5c0,2.8-1.2,5.1-3.5,6.8
			c-2.3,1.7-5.4,2.5-9.4,2.5c-4.6,0-8.6-0.8-12.2-2.4c-3.6-1.6-7.1-4-10.7-7l-7.7,9.1c4.3,3.9,9.1,6.9,14.2,8.8
			c5.1,1.9,10.5,2.9,16.1,2.9c3.8,0,7.3-0.5,10.5-1.5c3.2-1,5.9-2.4,8.1-4.3c2.3-1.9,4-4.2,5.3-6.9c1.3-2.7,1.9-5.8,1.9-9.2
			c0-3-0.5-5.7-1.5-7.9c-1-2.3-2.5-4.2-4.4-5.9c-1.9-1.7-4.4-3.1-7.3-4.3c-2.9-1.2-6.3-2.3-10.1-3.2c-3.5-0.8-6.3-1.6-8.6-2.4
			c-2.2-0.8-4-1.6-5.3-2.5c-1.3-0.9-2.2-1.9-2.6-2.9C579.6,308,579.4,306.8,579.4,305.3"/>
		<path id="Fill-8" d="M173.5,300.4L138.8,335c-0.4-0.9-0.9-1.8-1.2-2.7c-1.2-3.1-1.8-6.5-1.8-10c0-3.5,0.6-6.9,1.8-10
			c1.2-3.1,2.9-5.9,5-8.2c2.1-2.3,4.7-4.1,7.7-5.5c3-1.3,6.3-2,9.9-2c3.6,0,6.9,0.7,10,2.1C171.4,299.1,172.5,299.7,173.5,300.4z
			 M170.4,346.2c-3,1.3-6.3,2-9.9,2c-3.6,0-6.9-0.7-10-2.1c-1.1-0.5-2.2-1.1-3.2-1.7l34.7-34.6c0.4,0.9,0.9,1.8,1.2,2.7
			c1.2,3.1,1.8,6.5,1.8,10s-0.6,6.9-1.8,10c-1.2,3.1-2.9,5.9-5,8.2C176,343,173.5,344.8,170.4,346.2z M175.7,356.9
			c4.6-2,8.7-4.7,12.1-8.1c3.4-3.4,6-7.4,7.9-12c1.9-4.6,2.8-9.4,2.8-14.5c0-5.1-0.9-10-2.8-14.5c-1.1-2.7-2.5-5.2-4.1-7.5
			l22.6-22.5l-9-9l-22.6,22.6c-2-1.4-4.2-2.6-6.6-3.6c-4.6-2-9.8-3-15.4-3c-5.6,0-10.7,1-15.4,3c-4.6,2-8.7,4.7-12.1,8.1
			c-3.4,3.4-6,7.4-7.9,12c-1.9,4.6-2.8,9.4-2.8,14.5c0,5.1,0.9,10,2.8,14.5c1.1,2.7,2.5,5.2,4.1,7.5L106.7,367l9,9l22.6-22.6
			c2,1.4,4.2,2.6,6.6,3.6c4.6,2,9.8,3,15.4,3C165.9,359.9,171,358.9,175.7,356.9z"/>
	</g>
</g>
</svg>
