<svg width="410" height="213" fill="none" xmlns="http://www.w3.org/2000/svg"><path d="M336.87 56.083l-67.592 99.543h20.753l67.942-99.543H336.87z" fill="#fff"/><path d="M292.192 56.083l19.887 29.332-10.376 15.999-30.696-45.331h21.185z" fill="url(#paint0_linear_502_2417)"/><path d="M338.884 155.634l-22.049-32.443 10.376-15.555 32.425 47.998h-20.752z" fill="url(#paint1_linear_502_2417)"/><path fill-rule="evenodd" clip-rule="evenodd" d="M245.066 56.083h18.159v99.543h-18.159v-3.718a35.986 35.986 0 01-17.668 4.615c-20.327 0-36.806-16.863-36.806-37.665s16.479-37.665 36.806-37.665a35.986 35.986 0 0117.668 4.615V56.083zm-17.861 83.909c11.513 0 20.846-9.551 20.846-21.332 0-11.782-9.333-21.333-20.846-21.333s-20.847 9.551-20.847 21.333c0 11.781 9.334 21.332 20.847 21.332z" fill="#fff"/><path d="M192.399 56.083l-67.522 99.543h21.169l67.456-99.543h-21.103z" fill="#fff"/><path d="M146.061 56.083l21.184 30.22-11.673 16.889-31.56-47.11h22.049z" fill="url(#paint2_linear_502_2417)"/><path fill-rule="evenodd" clip-rule="evenodd" d="M100.666 56.083h18.158v99.543h-18.158v-3.718a35.987 35.987 0 01-17.668 4.615c-20.328 0-36.807-16.863-36.807-37.665s16.48-37.665 36.807-37.665a35.987 35.987 0 0117.668 4.615V56.083zm-17.862 83.909c11.514 0 20.847-9.551 20.847-21.332 0-11.782-9.333-21.333-20.847-21.333-11.513 0-20.846 9.551-20.846 21.333 0 11.781 9.333 21.332 20.846 21.332z" fill="#fff"/><defs><linearGradient id="paint0_linear_502_2417" x1="287.436" y1="62.305" x2="316.842" y2="96.838" gradientUnits="userSpaceOnUse"><stop stop-color="#fff"/><stop offset="1" stop-color="#fff" stop-opacity=".55"/></linearGradient><linearGradient id="paint1_linear_502_2417" x1="343.64" y1="148.079" x2="307.407" y2="100.562" gradientUnits="userSpaceOnUse"><stop stop-color="#484848"/><stop offset="1" stop-color="#fff" stop-opacity=".36"/></linearGradient><linearGradient id="paint2_linear_502_2417" x1="141.305" y1="62.549" x2="171.799" y2="98.823" gradientUnits="userSpaceOnUse"><stop stop-color="#fff"/><stop offset="1" stop-color="#fff" stop-opacity=".55"/></linearGradient></defs></svg>