<svg width="358" height="213" fill="none" xmlns="http://www.w3.org/2000/svg"><g clip-path="url(#clip0_504_117)"><path d="M101.327 33.303v23.873c0 5.982-2.383 11.72-6.623 15.95L81.349 86.45a32.982 32.982 0 00-4.77 6.041c-2.967 4.906-4.526 10.565-4.526 16.372 0 8.468 3.294 16.407 9.296 22.373l25.417 25.365a22.105 22.105 0 016.492 15.646V196.3l-48.572-48.438c-10.238-10.205-15.977-23.791-16.183-38.245-.197-14.81 6.03-29.63 17.087-40.655l35.737-35.659z" fill="url(#paint0_linear_504_117)"/><path d="M164.495 108.007c.181 12.191-3.522 23.797-10.722 33.549-.249.333-.501.666-.766.999-1.408 1.819-3.003 3.599-4.709 5.314l-1.935 1.93s-.019.013-.029.026l-9.672 9.647-16.636-16.593 11.63-11.63a33.18 33.18 0 004.463-5.535c.104-.16.209-.327.314-.493 2.96-4.87 4.525-10.523 4.525-16.352 0-8.468-3.3-16.42-9.302-22.413l-13.332-13.288a22.532 22.532 0 01-6.634-15.96V33.352l35.754 35.662c10.778 10.75 16.832 24.6 17.048 38.993h.003z" fill="url(#paint1_linear_504_117)"/><path d="M153.006 142.555c-1.408 1.819-3.002 3.599-4.708 5.314l-1.935 1.93s-.02.013-.029.026l-9.672 9.647-34.195-34.108a21.574 21.574 0 01-6.342-15.273V85.823l56.885 56.739-.004-.007z" fill="url(#paint2_linear_504_117)"/><path d="M198.157 78.612c-11.391.065-19.399 7.906-19.399 19.49s7.792 19.349 19.612 19.349c6.64 0 12.114-2.377 15.866-6.472l-4.397-4.674c-2.812 2.871-6.64 4.458-10.821 4.458-6.054 0-10.598-3.667-11.895-9.568h28.983c1.015-13.811-4.469-22.583-17.956-22.583h.007zm-11.175 16.534c.94-6.113 5.196-9.92 11.25-9.92s10.383 3.742 10.674 9.92h-21.924zm38.147-31.351v53.366h8.297V63.795h-8.297zm64.032 25.173c0-2.74 2.383-3.818 5.625-3.818 3.241 0 7.645 1.3 11.034 3.38l3.028-6.114c-3.464-2.442-8.578-3.882-13.411-3.882-7.357 0-14.137 3.308-14.137 11.074-.076 13.811 20.116 9.428 20.116 17.266 0 2.87-2.737 4.098-6.27 4.098-4.181 0-9.518-1.802-12.835-4.745l-2.959 5.898c3.827 3.449 9.806 5.323 15.431 5.323 7.72 0 14.713-3.53 14.713-11.368.066-13.88-20.338-10.068-20.338-17.112h.003zm-105.8 42.899h1.791l7.007 9.216v-9.216h1.791v12.151h-1.791l-7.007-9.216v9.216h-1.791v-12.151zm20.588 1.662v3.468h6.457v1.662h-6.457v3.697h7.148v1.662h-8.958v-12.151h8.958v1.662h-7.148zm18.11 0h-3.992v-1.662h9.79v1.662h-4.008v10.489h-1.79v-10.489zm12.379-1.662h1.987l2.996 9.268 3.051-9.268h1.988l3.051 9.268 2.996-9.268h1.987l-4.007 12.151h-1.791l-3.209-9.676-3.244 9.676h-1.791l-4.008-12.151h-.006zm24.772 6.067c0-3.416 2.907-6.28 6.332-6.28s6.296 2.868 6.296 6.28c0 3.413-2.874 6.297-6.296 6.297-3.421 0-6.332-2.884-6.332-6.297zm10.801 0c0-2.511-2.039-4.634-4.469-4.634-2.429 0-4.489 2.123-4.489 4.634 0 2.512 2.056 4.654 4.489 4.654s4.469-2.123 4.469-4.654zm15.873 1.679l3.104 4.405h-2.057l-2.979-4.229h-2.803v4.229h-1.791v-12.151h5.128c2.57 0 4.521 1.646 4.521 3.961 0 1.874-1.277 3.308-3.12 3.785h-.003zm-4.735-1.486h3.088c1.755 0 2.943-.865 2.943-2.299s-1.188-2.299-2.943-2.299h-3.088v4.598zm15.412-6.26h1.791v6.332l5.746-6.332h2.289l-5.003 5.466 5.336 6.689h-2.252l-4.345-5.448-1.774 1.895v3.556h-1.791v-12.152l.003-.006zm-43.805-23.579c.577-.542 1.081-1.244 1.5-2.077a11.15 11.15 0 00.93-2.691 13.2 13.2 0 00.268-3.047 11.959 11.959 0 00-.504-3.151c-1.002-3.237-1.434-4.168-2.803-7.466a675.21 675.21 0 01-4.007-9.866l-.092-.235h-9.295l13.624 28.882.376-.352.003.003z" fill="#fff"/><path d="M268.977 79.761l-11.555 28.945a163.257 163.257 0 01-2.131 4.895c-.665 1.453-1.372 2.721-2.102 3.772-.717 1.029-1.549 1.842-2.475 2.41-1.85 1.137-4.679 1.006-7.855.314l-.291-.062-2.332 5.035.426.115c2.243.597 5.451.947 7.652 1.028 2.442 0 4.511-.404 6.155-1.205a13.549 13.549 0 004.312-3.321c1.208-1.388 2.311-3.053 3.274-4.951a242.073 242.073 0 003.009-6.188l12.573-30.78h-8.66v-.007z" fill="#fff"/></g><defs><linearGradient id="paint0_linear_504_117" x1="179.107" y1="39.103" x2="65.969" y2="157.688" gradientUnits="userSpaceOnUse"><stop/><stop offset="1" stop-color="#fff"/></linearGradient><linearGradient id="paint1_linear_504_117" x1="142.012" y1="177.433" x2="137.53" y2="68.448" gradientUnits="userSpaceOnUse"><stop/><stop offset="1" stop-color="#fff"/></linearGradient><linearGradient id="paint2_linear_504_117" x1="69.601" y1="44.328" x2="131.102" y2="140.116" gradientUnits="userSpaceOnUse"><stop/><stop offset="1" stop-color="#fff"/></linearGradient><clipPath id="clip0_504_117"><path fill="#fff" transform="translate(48.5 33.303)" d="M0 0h261v163H0z"/></clipPath></defs></svg>