<svg width="668" height="213" fill="none" xmlns="http://www.w3.org/2000/svg"><g clip-path="url(#clip0_503_2)"><mask id="a" style="mask-type:luminance" maskUnits="userSpaceOnUse" x="59" y="51" width="110" height="111"><path d="M169 51.294H59v109.911h110V51.294z" fill="#fff"/></mask><g mask="url(#a)"><path d="M125.55 52.613l-.33.66c11.44 4.945 17.93 15.167 17.93 26.378 0 12.09-7.92 23.081-23.32 32.424l-2.53 1.539c-11.55 7.034-17.38 14.947-17.38 24.51 0 12.31 9.68 21.322 22.99 21.322 21.34 0 46.09-22.751 46.09-53.087 0-4.946-.66-9.782-1.87-14.398l-.77.22c.33 2.528.44 4.396.44 6.155 0 17.915-10.12 33.303-27.06 43.525l-1.65.989c-3.63 2.088-6.71 3.297-9.79 3.297-4.07 0-7.15-2.638-7.15-6.485 0-3.297 2.2-6.594 9.35-10.771l2.09-1.209c15.84-9.232 24.64-22.202 24.64-36.6 0-18.245-13.64-33.303-31.68-38.469zm-23.1 107.383l.33-.66c-11.44-4.945-17.93-15.167-17.93-26.378 0-12.09 7.92-23.081 23.32-32.424l2.53-1.538c11.55-7.035 17.38-14.948 17.38-24.51 0-12.31-9.68-21.323-22.99-21.323C83.75 53.163 59 75.914 59 106.25c0 4.946.66 9.782 1.87 14.398l.77-.22c-.33-2.528-.44-4.396-.44-6.155 0-17.915 10.12-33.303 27.06-43.525l1.65-.989c3.63-2.088 6.71-3.297 9.79-3.297 4.07 0 7.15 2.638 7.15 6.485 0 3.297-2.2 6.594-9.35 10.77l-2.09 1.21c-15.84 9.232-24.64 22.202-24.64 36.6 0 18.245 13.64 33.303 31.68 38.469z" fill="#fff"/></g><mask id="b" style="mask-type:luminance" maskUnits="userSpaceOnUse" x="224" y="51" width="385" height="111"><path d="M609 51.294H224v109.911h385V51.294z" fill="#fff"/></mask><g mask="url(#b)"><mask id="c" style="mask-type:luminance" maskUnits="userSpaceOnUse" x="224" y="66" width="385" height="89"><path d="M609 66.462H224v88.351h385V66.462z" fill="#fff"/></mask><g mask="url(#c)" fill="#fff"><path d="M224 131.091h1.588c5.702 0 7.385-1.682 7.385-8.313v-37.73c0-6.632-1.683-8.313-7.385-8.313H224v-5.51h29.443v5.51h-1.496c-5.701 0-7.384 1.681-7.384 8.312v37.731c0 6.631 1.683 8.313 7.384 8.313h1.496v5.51H224v-5.51zm50.287-42.215h2.617v8.313h.094c3.365-5.51 9.066-8.966 16.545-8.966 8.598 0 14.862 4.763 14.862 17.931v17.839c0 6.07 1.401 7.565 6.168 7.565h1.309v5.043h-24.676v-5.043h1.214c4.3 0 5.516-1.495 5.516-7.565v-17.839c0-7.284-4.488-9.806-9.442-9.806-5.514 0-11.683 3.923-11.683 14.663v12.982c0 6.07 1.309 7.565 5.514 7.565h1.216v5.043h-24.583v-5.043h1.216c4.767 0 6.168-1.495 6.168-7.565v-24.47l-6.73-2.054v-3.176l14.675-5.417z"/><path d="M325.414 134.733v-35.21l-6.73-2.054v-3.176l14.769-5.417h2.43v41.281c0 13.075-7.29 21.76-21.966 24.656l-.28-1.121c5.796-3.362 11.777-9.246 11.777-18.959zm-1.868-60.613c0-4.296 3.269-7.658 7.477-7.658 4.205 0 7.477 3.362 7.57 7.658 0 4.203-3.272 7.472-7.478 7.472-4.205 0-7.569-3.27-7.569-7.472zm46.36 13.915c12.057 0 19.534 7.939 19.534 20.174v.653h-33.182c.093 12.235 6.263 19.333 17.386 19.333 8.599 0 12.619-4.296 14.954-8.499l1.589.467c-2.056 9.059-8.786 17.745-21.59 17.745-14.207 0-22.62-10.74-22.62-24.282 0-14.57 9.627-25.59 23.929-25.59zm8.318 16.064c-.467-7.098-3.833-10.927-9.909-10.927-4.86 0-10.281 2.335-11.683 10.927h21.592zm18.973 10.554c0-15.504 12.712-26.618 28.415-26.618 5.514 0 10.094 1.401 13.366 2.803l.092 14.569-2.71.374-7.757-12.515a16.127 16.127 0 00-4.113-.56c-7.571 0-17.011 5.696-17.011 17.931 0 9.993 5.888 17.651 16.824 17.651 8.412 0 12.525-4.389 14.955-8.592l1.59.561c-2.058 8.965-8.788 17.651-21.405 17.651-13.927 0-22.246-10.74-22.246-23.255zm51.877 7.939V90.651l7.665-12.608h2.897v11.86h14.769v6.258h-14.769v24.096c0 6.351 2.617 9.62 7.758 9.62 2.151 0 5.235-.561 8.319-4.016l1.216.747c-3.084 6.911-8.039 10.927-15.049 10.927-7.479 0-12.806-4.95-12.806-14.943zm31.968 8.966h1.309c4.765 0 6.168-1.495 6.168-7.565V99.617l-6.73-2.148v-3.176l15.141-5.51h2.058v35.21c0 6.07 1.401 7.565 6.168 7.565h1.216v5.043h-25.33v-5.043zm5.047-57.438c0-4.296 3.272-7.658 7.477-7.658 4.206 0 7.477 3.362 7.572 7.658.093 4.203-3.272 7.472-7.572 7.472-4.3 0-7.477-3.27-7.477-7.472zm23.365 20.827h-1.121v-5.044h25.236v5.044h-1.309c-4.765 0-6.074 1.494-3.644 7.004l9.533 21.481 9.254-21.481c2.336-5.51 1.027-7.004-3.738-7.004h-1.216v-5.044h20.658v5.044h-1.122c-4.487 0-5.888 1.494-8.32 7.004l-15.142 34.93h-5.608l-15.704-34.93c-2.522-5.51-3.738-7.004-7.757-7.004zm79.263-6.912c12.057 0 19.536 7.939 19.536 20.174v.653h-33.181c.092 12.235 6.261 19.333 17.384 19.333 8.6 0 12.619-4.296 14.956-8.499l1.588.467c-2.055 9.059-8.785 17.745-21.591 17.745-14.208 0-22.619-10.74-22.619-24.282 0-14.57 9.627-25.59 23.927-25.59zm8.319 16.064c-.467-7.098-3.831-10.927-9.907-10.927-4.86 0-10.282 2.335-11.685 10.927h21.592z"/></g></g></g><defs><clipPath id="clip0_503_2"><path fill="#fff" transform="translate(0 .303)" d="M0 0h668v212H0z"/></clipPath></defs></svg>