<svg width="660" height="213" fill="none" xmlns="http://www.w3.org/2000/svg"><path d="M108.309 45.313V150.59h45.201v-44.384h-39.548l-1.547-1.546V86.598h60.614v82.571H89.814V63.891H66.19v22.707h19.519v19.609H48.726V45.313h59.583zm174.378 33.275c16.491-2.837 28.524 6.428 30.041 22.992 1.828 19.905-5.155 38.282-28.119 35.48-27.375-3.341-24.956-54.508-1.922-58.472zm6.063 8.383c-23.315 1.06-16.59 52.855 6.907 39.745 12.302-6.866 10.445-40.533-6.907-39.745zm134.439-7.599c1.535.207 7.615 2.393 9.092 3.252 8.336 4.852 8.025 17.524-.469 21.931-2.009 1.043-5.296.93-6.051 2.678 14.551.403 18.095 19.005 5.864 26.031-1.119.645-6.626 2.879-7.411 2.879h-27.223V79.372c8.213.787 18.231-1.073 26.198 0zm-16.954 22.707h15.923c1.845 0 6.473-3.395 6.701-5.717.264-2.66-3.473-7.701-5.676-7.701h-16.954v13.418h.006zm0 24.775h15.923c1.517 0 5.952-3.075 6.473-4.87 3.421-11.688-13.345-11.913-20.697-11.475l-1.699 1.38v14.965zm130.988-47.482c1.722.23 8.19 2.6 9.719 3.655 9.191 6.368 6.66 27.458-6.122 28.353l11.294 24.757-11.154-.136-10.579-23.43c-3.252-.125-7.792-1.262-10.111 1.38v22.192h-9.245V79.372c8.213.787 18.231-1.073 26.198 0zm-16.953 24.774c7.199.042 25.857 1.428 22.155-10.367-.492-1.57-3.878-5.118-5.208-5.118h-16.953v15.48l.006.005zM228.505 79.371v47.483h28.769v9.289h-38.013V79.371h9.244zm99.653 0l10.105.178 15.073 35.96 16.081-35.96 10.105-.178v56.772h-10.269v-33.028l-13.017 27.909-6.004-1.06-11.799-24.787v30.966h-10.275V79.371zm238.344 56.772V79.371h22.085c2.472 0 12.73 5.634 14.886 7.755 10.995 10.83 9.496 34.224-2.736 43.679-1.722 1.333-9.578 5.338-11.125 5.338h-23.116.006zm9.244-47.483v38.194c17.785 2.819 30.363-8.739 24.118-26.813-3.984-11.546-13.269-12.186-24.118-11.38zm-96.742-9.112l20.709 56.594-10.17-.101-3.814-11.315-24.135.705-3.96 10.243-9.285.468 20.427-56.155 10.222-.439h.006zm3.251 35.948c-.538-1.955-7.709-23.904-9.232-22.707l-7.205 22.707h16.437z" fill="#fff"/></svg>