<svg width="620" height="213" fill="none" xmlns="http://www.w3.org/2000/svg"><g clip-path="url(#clip0_502_1227)" fill="#fff"><path d="M90.963 69.745l-22.25 15.587V56.283l22.25-15.586 22.173 15.532.005 44.672-22.178-15.57V69.746z"/><path d="M48 70.764L68.714 85.32v60.258l22.25-15.548v31.08l-22.25 15.586L48 162.075V70.764z"/><path d="M90.963 130.031l22.178 15.537v-29.103l-22.178-15.597v29.163zm97.046-54.491h-13.895v70.039h47.122v-11.665h-33.227V75.54zm102.521 25.334v44.705h13.851V97.013h27.724V85.33h-26.048c-8.577 0-15.533 6.96-15.533 15.543h.006zm108.18 44.809h13.846V96.98l-13.846-9.699v58.402zm32.852-60.352h-18.957v11.644h13.95c6.063 0 10.977 4.917 10.977 10.984v37.724h13.928v-40.442c0-10.995-8.91-19.904-19.893-19.904l-.005-.006zm135.213 14.503c-2.394-4.515-5.91-8.06-10.553-10.636-4.571-2.581-9.959-3.867-16.175-3.867-5.84 0-11.075 1.182-15.723 3.546-4.566 2.363-8.197 5.8-10.891 10.314-2.623 4.438-3.929 9.705-3.929 15.793 0 6.089 1.197 11.137 3.592 15.793 2.471 4.656 5.992 8.311 10.558 10.957 4.643 2.576 10.107 3.867 16.393 3.867 5.916 0 11.157-1.22 15.724-3.654 4.642-2.435 8.234-5.947 10.781-10.533 2.624-4.656 3.93-10.134 3.93-16.441 0-5.658-1.236-10.706-3.707-15.15v.01zm-14.624 29.44c-2.939 3.654-6.971 5.479-12.109 5.479s-8.948-1.754-12.104-5.266c-3.081-3.584-4.621-8.42-4.621-14.508 0-5.659 1.502-10.206 4.512-13.648 3.08-3.436 7.151-5.157 12.213-5.157 5.061 0 9.1 1.72 12.109 5.157 3.005 3.437 4.512 7.989 4.512 13.648 0 5.658-1.507 10.565-4.512 14.29v.005zM379.476 89.187c-4.359-2.581-9.503-3.866-15.435-3.866-5.573 0-10.569 1.181-14.999 3.545-4.36 2.363-7.821 5.8-10.396 10.314-2.503 4.439-3.75 9.705-3.75 15.793 0 6.089 1.143 11.137 3.429 15.793 2.357 4.657 5.715 8.311 10.074 10.958 4.431 2.575 9.644 3.866 15.648 3.866 5.643 0 10.645-1.22 15.005-3.654 4.43-2.434 7.859-5.947 10.286-10.532.272-.512.528-1.035.773-1.563H375.1c-2.754 3.251-6.427 4.895-11.053 4.895-4.627 0-8.54-1.753-11.549-5.266-2.384-2.902-3.783-6.638-4.235-11.186h37.673v-.01h7.01c.087-1.079.142-2.173.142-3.306 0-5.658-1.181-10.707-3.538-15.15-2.286-4.515-5.644-8.06-10.074-10.636v.005zm-27.093 12.139c2.939-3.436 6.825-5.157 11.653-5.157 4.827 0 8.68 1.72 11.554 5.157 1.709 2.048 2.901 4.504 3.592 7.341h-30.391c.691-2.837 1.878-5.293 3.592-7.341zM270.73 89.198c-4.566-2.581-9.954-3.867-16.17-3.867-5.839 0-11.075 1.182-15.718 3.546a26.886 26.886 0 00-5.023 3.36l10.439 7.319c2.792-2.238 6.22-3.376 10.297-3.376 5.067 0 9.094 1.72 12.104 5.157 3.004 3.436 4.512 7.989 4.512 13.647s-1.508 10.565-4.512 14.29c-2.933 3.654-6.966 5.479-12.104 5.479-5.138 0-8.942-1.754-12.099-5.266-3.08-3.584-4.62-8.42-4.62-14.508 0-1.454.103-2.832.299-4.139l-11.832-8.327c-1.519 3.681-2.281 7.831-2.281 12.466 0 5.876 1.198 11.137 3.593 15.793 2.47 4.656 5.986 8.31 10.553 10.957 4.642 2.576 10.101 3.866 16.392 3.866 5.916 0 11.152-1.219 15.724-3.654 4.642-2.434 8.234-5.947 10.776-10.532 2.623-4.656 3.929-10.135 3.929-16.441 0-5.658-1.235-10.707-3.706-15.15-2.395-4.515-5.91-8.06-10.553-10.636v.016zm186.106 7.815h33.346l-33.324 37.19v11.376h49.848v-11.67h-33.102l33.102-36.711V85.33h-49.87v11.682z"/></g><defs><clipPath id="clip0_502_1227"><path fill="#fff" transform="translate(48 40.697)" d="M0 0h522.481v136H0z"/></clipPath></defs></svg>