<svg width="562" height="213" fill="none" xmlns="http://www.w3.org/2000/svg"><g clip-path="url(#clip0_502_2401)"><path d="M430.377 92.853c0-12.367-8.867-21.785-25.685-21.785h-33.286v77.724h12.32V117.25h22.34c6.211 0 10.476 2.378 10.476 9.536v22.019h12.435v-23.15c0-9.873-5.649-13.848-12.659-14.186v-.558c6.095-1.819 14.046-6.47 14.046-18.045l.013-.013zm-27.176 14.186H383.74l.117-25.981h19.004c10.476 0 14.857 5.677 14.857 12.705 0 7.028-4.605 13.276-14.504 13.276h-.013zM98.339 69.574l-8.788-8.665-8.842 8.717 8.802 8.665 8.841-8.717h-.013zm71.331 1.494l-31.546 77.724h13.249l8.292-20.538h33.965l8.174 20.538h13.471l-31.441-77.724H169.67zm-6.906 47.209l13.589-34.387h.575l13.354 34.387h-27.518zm-31.728-39.233l-8.737-8.808L97.646 93.97c-4.486 4.314-11.77 4.314-16.243 0L56.736 70.224 48 79.044v69.761h12.45V91.022l12.203 11.743c4.643 4.482 10.764 6.717 16.871 6.717 6.108 0 12.216-2.235 16.872-6.717l11.967-11.522v57.549h12.686V79.044h-.013zm351.121-7.963h-14.164l-31.546 77.724h13.247l8.293-20.538h33.965l8.175 20.538h13.469l-31.428-77.724h-.011zm-21.07 47.209l13.587-34.387h.577l13.352 34.387h-27.516zm-184.252 12.367h-.575l-39.837-59.59h-13.929v77.725h12.438V89.904h.575l39.262 58.888 14.504.117V71.068h-12.438v59.589zm20.573-49.47h26.837v67.631h12.098l.118-67.63h26.824v-10.12h-65.864v10.094l-.013.026z" fill="#fff"/></g><defs><clipPath id="clip0_502_2401"><path fill="#fff" transform="translate(48 60.909)" d="M0 0h466v88H0z"/></clipPath></defs></svg>