<svg data-v-62d13040="" width="343" height="319" viewBox="0 0 343 319" fill="none" xmlns="http://www.w3.org/2000/svg" class="fg"><circle data-v-62d13040="" cx="78" cy="78" r="78" transform="matrix(-1 0 0 1 237.518 81.5156)" stroke="white" stroke-opacity="0.1" stroke-width="0.5"></circle> <circle data-v-62d13040="" cx="118" cy="118" r="118" transform="matrix(-1 0 0 1 277.518 41.5156)" stroke="white" stroke-opacity="0.1" stroke-width="0.5"></circle> <circle data-v-62d13040="" cx="159" cy="159" r="159" transform="matrix(-1 0 0 1 318.518 0.515625)" stroke="white" stroke-opacity="0.1" stroke-width="0.5"></circle> <g data-v-62d13040="" filter="url(#filter0_i_16927_5756)"><path data-v-62d13040="" d="M93.296 136.53C81.7041 173.368 102.17 212.628 139.008 224.22C175.846 235.812 215.106 215.346 226.698 178.508C238.29 141.67 217.824 102.41 180.986 90.8178C144.148 79.2258 104.888 99.6918 93.296 136.53Z" fill="url(#paint0_radial_16927_5756)"></path></g> <path data-v-62d13040="" d="M145.794 247.319C127.282 251.229 111.078 248.726 109.599 241.728L107.834 233.372C130.196 228.648 152.507 223.935 174.869 219.211L176.634 227.567C178.113 234.565 164.305 243.408 145.794 247.319Z" fill="url(#paint1_radial_16927_5756)"></path> <g data-v-62d13040="" filter="url(#filter1_ddi_16927_5756)"><ellipse data-v-62d13040="" cx="34.2571" cy="12.9509" rx="34.2571" ry="12.9509" transform="matrix(-0.978408 0.206682 0.206682 0.978408 172.192 206.539)" fill="url(#paint2_linear_16927_5756)"></ellipse></g> <g data-v-62d13040="" opacity="0.5" style="mix-blend-mode: hard-light;"><path data-v-62d13040="" d="M113.526 232.168C113.805 233.49 114.79 234.643 116.43 235.581C118.07 236.52 120.327 237.218 123.055 237.636C128.508 238.472 135.762 238.178 143.517 236.54C151.272 234.902 158.025 232.237 162.674 229.267C165 227.781 166.781 226.23 167.902 224.708C169.023 223.187 169.457 221.734 169.178 220.412C168.898 219.091 167.914 217.938 166.273 216.999C164.633 216.061 162.377 215.363 159.649 214.945C154.195 214.108 146.941 214.403 139.187 216.041C131.432 217.679 124.679 220.344 120.029 223.314C117.703 224.8 115.922 226.351 114.802 227.872C113.681 229.394 113.247 230.847 113.526 232.168Z" stroke="url(#paint3_linear_16927_5756)" stroke-width="0.772632"></path></g> <g data-v-62d13040="" style="mix-blend-mode: soft-light;"><path data-v-62d13040="" fill-rule="evenodd" clip-rule="evenodd" d="M135.783 221.494C135.879 221.405 135.951 221.381 135.964 221.377C135.976 221.373 136.051 221.35 136.24 221.348C136.434 221.345 136.691 221.366 137.007 221.423C137.638 221.538 138.382 221.779 139.189 222.138C140.795 222.854 142.56 224.002 144.089 225.416C145.619 226.829 146.607 228.226 146.977 229.336C147.163 229.894 147.187 230.364 147.065 230.719C147.004 230.897 146.912 231.029 146.814 231.12C146.718 231.209 146.645 231.233 146.633 231.237C146.62 231.241 146.546 231.264 146.357 231.266C146.162 231.269 145.905 231.248 145.589 231.191C144.959 231.076 144.214 230.835 143.408 230.476C141.802 229.76 140.036 228.612 138.507 227.198C136.978 225.785 135.989 224.388 135.619 223.278C135.433 222.72 135.409 222.25 135.531 221.895C135.592 221.717 135.684 221.585 135.783 221.494ZM137.805 227.423C134.721 224.573 133.785 221.762 135.714 221.146C137.644 220.53 141.708 222.341 144.792 225.191C147.876 228.041 148.812 230.852 146.882 231.468C144.953 232.084 140.889 230.273 137.805 227.423Z" fill="white"></path> <path data-v-62d13040="" fill-rule="evenodd" clip-rule="evenodd" d="M125.72 228.082C125.61 228.034 125.622 228.001 125.624 227.996C125.627 227.991 125.643 227.958 125.808 227.88C125.977 227.799 126.253 227.696 126.664 227.572C127.484 227.324 128.682 227.042 130.2 226.748C133.222 226.16 137.342 225.552 141.836 225.068C146.329 224.584 150.301 224.32 153.085 224.282C154.482 224.262 155.542 224.301 156.217 224.387C156.556 224.43 156.764 224.482 156.877 224.532C156.986 224.58 156.975 224.613 156.972 224.618C156.97 224.623 156.953 224.656 156.789 224.734C156.62 224.814 156.344 224.918 155.933 225.042C155.113 225.29 153.914 225.571 152.397 225.866C149.375 226.453 145.255 227.062 140.761 227.546C136.267 228.03 132.296 228.294 129.512 228.332C128.115 228.351 127.054 228.313 126.379 228.227C126.041 228.183 125.832 228.132 125.72 228.082ZM140.626 227.858C131.565 228.834 124.52 228.931 124.891 228.075C125.263 227.218 132.909 225.732 141.971 224.756C151.032 223.779 158.077 223.682 157.705 224.539C157.334 225.396 149.688 226.882 140.626 227.858Z" fill="white"></path> <path data-v-62d13040="" fill-rule="evenodd" clip-rule="evenodd" d="M131.242 232.897C131.036 232.937 130.976 232.929 130.966 232.927C130.956 232.926 130.899 232.915 130.874 232.84C130.848 232.762 130.867 232.638 130.962 232.456C131.151 232.093 131.605 231.571 132.315 230.917C133.73 229.614 136.083 227.856 139.046 225.958C142.008 224.06 144.989 222.4 147.401 221.251C148.613 220.674 149.648 220.242 150.444 219.974C150.843 219.839 151.144 219.758 151.355 219.717C151.56 219.677 151.621 219.685 151.631 219.687C151.641 219.688 151.698 219.699 151.723 219.774C151.749 219.852 151.73 219.976 151.635 220.158C151.446 220.521 150.992 221.043 150.282 221.697C148.867 223 146.513 224.758 143.551 226.656C140.589 228.553 137.608 230.214 135.195 231.363C133.984 231.94 132.949 232.372 132.153 232.64C131.754 232.775 131.452 232.856 131.242 232.897ZM144.119 226.743C138.145 230.57 132.04 233.478 130.482 233.237C128.925 232.996 132.505 229.698 138.478 225.871C144.452 222.044 150.557 219.136 152.114 219.377C153.672 219.618 150.092 222.916 144.119 226.743Z" fill="white"></path> <path data-v-62d13040="" fill-rule="evenodd" clip-rule="evenodd" d="M149.777 221.654C149.167 221.849 148.848 222.17 149.065 222.37C149.282 222.571 149.952 222.575 150.562 222.38C151.173 222.186 151.491 221.865 151.274 221.665C151.057 221.464 150.387 221.459 149.777 221.654Z" fill="white"></path> <path data-v-62d13040="" fill-rule="evenodd" clip-rule="evenodd" d="M130.871 226.019C130.261 226.214 129.942 226.535 130.159 226.735C130.376 226.936 131.047 226.94 131.657 226.745C132.268 226.55 132.587 226.23 132.37 226.029C132.153 225.829 131.482 225.824 130.871 226.019Z" fill="white"></path> <path data-v-62d13040="" fill-rule="evenodd" clip-rule="evenodd" d="M146.782 228.606C146.171 228.801 145.852 229.122 146.069 229.322C146.286 229.523 146.956 229.527 147.567 229.332C148.177 229.137 148.497 228.817 148.28 228.616C148.063 228.416 147.392 228.411 146.782 228.606Z" fill="white"></path> <path data-v-62d13040="" fill-rule="evenodd" clip-rule="evenodd" d="M140.692 225.67C139.658 226 139.118 226.543 139.486 226.883C139.853 227.222 140.989 227.23 142.022 226.9C143.056 226.57 143.596 226.027 143.228 225.687C142.861 225.348 141.725 225.34 140.692 225.67Z" fill="white"></path></g> <g data-v-62d13040="" opacity="0.9" filter="url(#filter2_f_16927_5756)"><path data-v-62d13040="" d="M221.966 157.657C215.163 179.25 177.762 227.317 154.956 207.469L149.107 247.344C197.885 239.817 232.962 190.047 221.966 157.657Z" fill="url(#paint4_radial_16927_5756)"></path> <path data-v-62d13040="" d="M221.966 157.657C215.163 179.25 177.762 227.317 154.956 207.469L149.107 247.344C197.885 239.817 232.962 190.047 221.966 157.657Z" fill="url(#paint5_linear_16927_5756)"></path></g> <path data-v-62d13040="" d="M155.991 60.9568C174.579 57.4302 190.728 60.2679 192.061 67.2951L193.653 75.6859C171.198 79.9462 148.795 84.1968 126.34 88.457L124.748 80.0663C123.415 73.0391 137.402 64.4835 155.991 60.9568Z" fill="url(#paint6_radial_16927_5756)"></path> <g data-v-62d13040="" filter="url(#filter3_ddi_16927_5756)"><ellipse data-v-62d13040="" cx="34.2571" cy="12.9509" rx="34.2571" ry="12.9509" transform="matrix(0.982474 -0.186401 -0.186401 -0.982474 128.754 101.18)" fill="url(#paint7_linear_16927_5756)"></ellipse></g> <g data-v-62d13040="" opacity="0.5" style="mix-blend-mode: hard-light;"><path data-v-62d13040="" d="M187.938 76.7692C187.686 75.4425 186.726 74.2689 185.105 73.2968C183.485 72.325 181.243 71.5802 178.524 71.1055C173.089 70.1566 165.831 70.3009 158.044 71.7783C150.257 73.2557 143.45 75.78 138.74 78.6536C136.384 80.0912 134.571 81.6052 133.419 83.1029C132.267 84.6011 131.803 86.0449 132.055 87.3716C132.307 88.6982 133.267 89.8719 134.888 90.8439C136.508 91.8158 138.75 92.5605 141.469 93.0352C146.904 93.9842 154.162 93.8399 161.949 92.3625C169.736 90.8851 176.543 88.3608 181.253 85.4872C183.609 84.0496 185.422 82.5356 186.574 81.0378C187.726 79.5397 188.189 78.0958 187.938 76.7692Z" stroke="url(#paint8_linear_16927_5756)" stroke-width="0.772632"></path></g> <g data-v-62d13040="" style="mix-blend-mode: soft-light;"><path data-v-62d13040="" fill-rule="evenodd" clip-rule="evenodd" d="M165.465 86.9812C165.367 87.0678 165.294 87.0906 165.281 87.0943C165.269 87.098 165.194 87.1191 165.005 87.1176C164.81 87.1161 164.553 87.0904 164.239 87.0263C163.611 86.8983 162.872 86.6427 162.073 86.2668C160.482 85.5181 158.741 84.3332 157.241 82.8884C155.741 81.4436 154.781 80.0268 154.435 78.9089C154.261 78.3477 154.246 77.877 154.375 77.5244C154.44 77.3478 154.535 77.2175 154.635 77.1286C154.733 77.042 154.806 77.0192 154.818 77.0155C154.831 77.0118 154.906 76.9907 155.095 76.9922C155.289 76.9937 155.546 77.0194 155.861 77.0835C156.489 77.2115 157.228 77.4671 158.027 77.843C159.618 78.5917 161.359 79.7766 162.859 81.2214C164.359 82.6662 165.318 84.083 165.665 85.2009C165.839 85.7621 165.854 86.2328 165.725 86.5854C165.66 86.762 165.565 86.8923 165.465 86.9812ZM163.566 81.0117C166.59 83.9251 167.468 86.7539 165.526 87.3301C163.584 87.9063 159.558 86.0116 156.534 83.0981C153.51 80.1847 152.632 77.3559 154.574 76.7797C156.515 76.2035 160.541 78.0982 163.566 81.0117Z" fill="white"></path> <path data-v-62d13040="" fill-rule="evenodd" clip-rule="evenodd" d="M175.661 80.6024C175.77 80.6531 175.758 80.6852 175.755 80.6904C175.753 80.6958 175.735 80.7283 175.569 80.803C175.399 80.8797 175.12 80.9778 174.707 81.0933C173.882 81.3238 172.678 81.5806 171.155 81.8439C168.122 82.3686 163.989 82.8916 159.487 83.2827C154.984 83.6739 151.008 83.8552 148.224 83.836C146.826 83.8263 145.767 83.7663 145.094 83.6658C144.757 83.6155 144.549 83.5597 144.438 83.5076C144.329 83.4568 144.342 83.4248 144.344 83.4195C144.347 83.4142 144.364 83.3816 144.53 83.3069C144.7 83.2303 144.979 83.1322 145.392 83.0167C146.217 82.7861 147.421 82.5294 148.944 82.266C151.977 81.7414 156.11 81.2183 160.612 80.8272C165.115 80.436 169.091 80.2547 171.875 80.2739C173.273 80.2836 174.332 80.3437 175.005 80.4441C175.342 80.4944 175.55 80.5503 175.661 80.6024ZM160.754 80.5181C169.833 79.7294 176.878 79.778 176.49 80.6268C176.101 81.4756 168.425 82.803 159.346 83.5918C150.266 84.3806 143.221 84.3319 143.61 83.4831C143.998 82.6344 151.674 81.3069 160.754 80.5181Z" fill="white"></path> <path data-v-62d13040="" fill-rule="evenodd" clip-rule="evenodd" d="M170.24 75.6746C170.447 75.6388 170.507 75.6482 170.517 75.6499C170.526 75.6516 170.584 75.6631 170.607 75.7393C170.631 75.8175 170.61 75.9414 170.511 76.1211C170.315 76.4798 169.85 76.9923 169.126 77.6318C167.685 78.9055 165.296 80.6138 162.295 82.4501C159.294 84.2863 156.279 85.8847 153.843 86.9835C152.62 87.5351 151.576 87.9457 150.775 88.1979C150.373 88.3242 150.07 88.3986 149.859 88.4353C149.653 88.4711 149.592 88.4617 149.582 88.46C149.573 88.4583 149.515 88.4469 149.492 88.3707C149.468 88.2924 149.49 88.1685 149.588 87.9888C149.784 87.6302 150.249 87.1176 150.973 86.4782C152.414 85.2044 154.804 83.4961 157.805 81.6599C160.806 79.8236 163.82 78.2252 166.256 77.1264C167.479 76.5748 168.523 76.1642 169.325 75.9121C169.726 75.7858 170.029 75.7114 170.24 75.6746ZM157.239 81.5606C163.29 77.8578 169.454 75.0774 171.007 75.3504C172.559 75.6235 168.912 78.8465 162.86 82.5493C156.809 86.2521 150.645 89.0325 149.093 88.7595C147.54 88.4865 151.188 85.2634 157.239 81.5606Z" fill="white"></path> <path data-v-62d13040="" fill-rule="evenodd" clip-rule="evenodd" d="M151.477 86.5295C152.091 86.3473 152.417 86.0334 152.204 85.8284C151.991 85.6235 151.321 85.605 150.707 85.7872C150.092 85.9694 149.767 86.2833 149.98 86.4883C150.193 86.6933 150.863 86.7117 151.477 86.5295Z" fill="white"></path> <path data-v-62d13040="" fill-rule="evenodd" clip-rule="evenodd" d="M170.468 82.5569C171.083 82.3746 171.408 82.0607 171.196 81.8557C170.983 81.6507 170.312 81.6324 169.698 81.8147C169.083 81.997 168.758 82.3109 168.971 82.5159C169.183 82.7209 169.854 82.7392 170.468 82.5569Z" fill="white"></path> <path data-v-62d13040="" fill-rule="evenodd" clip-rule="evenodd" d="M154.616 79.6415C155.23 79.4592 155.556 79.1453 155.343 78.9405C155.13 78.7356 154.46 78.7173 153.846 78.8996C153.231 79.0819 152.905 79.3958 153.118 79.6006C153.331 79.8055 154.001 79.8238 154.616 79.6415Z" fill="white"></path> <path data-v-62d13040="" fill-rule="evenodd" clip-rule="evenodd" d="M160.643 82.7032C161.683 82.3946 162.234 81.8631 161.874 81.516C161.514 81.169 160.379 81.1379 159.338 81.4465C158.298 81.7552 157.747 82.2867 158.107 82.6337C158.468 82.9808 159.603 83.0119 160.643 82.7032Z" fill="white"></path></g> <g data-v-62d13040="" opacity="0.9" filter="url(#filter4_f_16927_5756)"><path data-v-62d13040="" d="M77.9799 149.024C85.228 127.576 123.614 80.2924 146.005 100.608L152.678 60.863C103.755 67.3793 67.6555 116.413 77.9799 149.024Z" fill="url(#paint9_radial_16927_5756)"></path> <path data-v-62d13040="" d="M77.9799 149.024C85.228 127.576 123.614 80.2924 146.005 100.608L152.678 60.863C103.755 67.3793 67.6555 116.413 77.9799 149.024Z" fill="url(#paint10_linear_16927_5756)"></path></g> <path data-v-62d13040="" d="M283.749 183.202C283.24 184.677 282.001 185.922 279.996 186.911C277.99 187.9 275.263 188.611 271.873 189.034C265.096 189.88 255.787 189.566 244.593 188.158C222.212 185.344 192.401 178.175 160.472 167.312C128.544 156.45 100.569 143.959 81.1528 132.553C71.441 126.847 63.8939 121.427 59.0638 116.632C56.6479 114.234 54.9327 112.012 53.9597 110.01C52.9878 108.009 52.7769 106.273 53.2858 104.798C53.7948 103.323 55.0345 102.078 57.0389 101.089C59.0449 100.1 61.7724 99.3893 65.1619 98.9661C71.9387 98.1198 81.2479 98.4342 92.4425 99.8417C114.823 102.656 144.634 109.825 176.563 120.688C208.492 131.55 236.466 144.041 255.882 155.447C265.594 161.153 273.141 166.573 277.971 171.368C280.387 173.766 282.102 175.988 283.075 177.99C284.047 179.991 284.258 181.727 283.749 183.202Z" stroke="url(#paint11_linear_16927_5756)"></path> <g data-v-62d13040="" filter="url(#filter5_i_16927_5756)"><path data-v-62d13040="" d="M288.28 68.7291C302.179 68.335 313.126 56.7483 312.732 42.8496C312.338 28.9509 300.751 18.0033 286.853 18.3975C272.954 18.7916 262.006 30.3783 262.401 44.277C262.795 58.1757 274.381 69.1233 288.28 68.7291Z" fill="url(#paint12_radial_16927_5756)"></path></g> <g data-v-62d13040="" filter="url(#filter6_i_16927_5756)"><path data-v-62d13040="" d="M301.667 226.34C282.961 224.989 266.702 239.059 265.352 257.765C264.001 276.471 278.071 292.73 296.777 294.08C315.483 295.431 331.742 281.362 333.092 262.656C334.443 243.949 320.373 227.69 301.667 226.34Z" fill="url(#paint13_radial_16927_5756)"></path> <path data-v-62d13040="" d="M301.667 226.34C282.961 224.989 266.702 239.059 265.352 257.765C264.001 276.471 278.071 292.73 296.777 294.08C315.483 295.431 331.742 281.362 333.092 262.656C334.443 243.949 320.373 227.69 301.667 226.34Z" fill="url(#paint14_radial_16927_5756)"></path></g> <defs data-v-62d13040=""><filter data-v-62d13040="" id="filter0_i_16927_5756" x="90.0527" y="87.5742" width="139.889" height="139.889" filterUnits="userSpaceOnUse" color-interpolation-filters="sRGB"><feFlood data-v-62d13040="" flood-opacity="0" result="BackgroundImageFix"></feFlood> <feBlend data-v-62d13040="" mode="normal" in="SourceGraphic" in2="BackgroundImageFix" result="shape"></feBlend> <feColorMatrix data-v-62d13040="" in="SourceAlpha" type="matrix" values="0 0 0 0 0 0 0 0 0 0 0 0 0 0 0 0 0 0 127 0" result="hardAlpha"></feColorMatrix> <feOffset data-v-62d13040=""></feOffset> <feGaussianBlur data-v-62d13040="" stdDeviation="13.0568"></feGaussianBlur> <feComposite data-v-62d13040="" in2="hardAlpha" operator="arithmetic" k2="-1" k3="1"></feComposite> <feColorMatrix data-v-62d13040="" type="matrix" values="0 0 0 0 0.94475 0 0 0 0 0.7875 0 0 0 0 1 0 0 0 0.72 0"></feColorMatrix> <feBlend data-v-62d13040="" mode="normal" in2="shape" result="effect1_innerShadow_16927_5756"></feBlend></filter> <filter data-v-62d13040="" id="filter1_ddi_16927_5756" x="94.9772" y="194.003" width="92.7488" height="54.532" filterUnits="userSpaceOnUse" color-interpolation-filters="sRGB"><feFlood data-v-62d13040="" flood-opacity="0" result="BackgroundImageFix"></feFlood> <feColorMatrix data-v-62d13040="" in="SourceAlpha" type="matrix" values="0 0 0 0 0 0 0 0 0 0 0 0 0 0 0 0 0 0 127 0" result="hardAlpha"></feColorMatrix> <feOffset data-v-62d13040="" dy="-5.02211"></feOffset> <feGaussianBlur data-v-62d13040="" stdDeviation="6.37421"></feGaussianBlur> <feColorMatrix data-v-62d13040="" type="matrix" values="0 0 0 0 0.404167 0 0 0 0 0.741154 0 0 0 0 1 0 0 0 0.4 0"></feColorMatrix> <feBlend data-v-62d13040="" mode="normal" in2="BackgroundImageFix" result="effect1_dropShadow_16927_5756"></feBlend> <feColorMatrix data-v-62d13040="" in="SourceAlpha" type="matrix" values="0 0 0 0 0 0 0 0 0 0 0 0 0 0 0 0 0 0 127 0" result="hardAlpha"></feColorMatrix> <feOffset data-v-62d13040="" dy="0.717806"></feOffset> <feGaussianBlur data-v-62d13040="" stdDeviation="0.717806"></feGaussianBlur> <feColorMatrix data-v-62d13040="" type="matrix" values="0 0 0 0 1 0 0 0 0 1 0 0 0 0 1 0 0 0 0.25 0"></feColorMatrix> <feBlend data-v-62d13040="" mode="normal" in2="effect1_dropShadow_16927_5756" result="effect2_dropShadow_16927_5756"></feBlend> <feBlend data-v-62d13040="" mode="normal" in="SourceGraphic" in2="effect2_dropShadow_16927_5756" result="shape"></feBlend> <feColorMatrix data-v-62d13040="" in="SourceAlpha" type="matrix" values="0 0 0 0 0 0 0 0 0 0 0 0 0 0 0 0 0 0 127 0" result="hardAlpha"></feColorMatrix> <feOffset data-v-62d13040="" dy="-0.717806"></feOffset> <feGaussianBlur data-v-62d13040="" stdDeviation="0.260205"></feGaussianBlur> <feComposite data-v-62d13040="" in2="hardAlpha" operator="arithmetic" k2="-1" k3="1"></feComposite> <feColorMatrix data-v-62d13040="" type="matrix" values="0 0 0 0 0.925 0 0 0 0 0.936947 0 0 0 0 1 0 0 0 0.12 0"></feColorMatrix> <feBlend data-v-62d13040="" mode="normal" in2="shape" result="effect3_innerShadow_16927_5756"></feBlend></filter> <filter data-v-62d13040="" id="filter2_f_16927_5756" x="125.541" y="134.091" width="122.017" height="136.818" filterUnits="userSpaceOnUse" color-interpolation-filters="sRGB"><feFlood data-v-62d13040="" flood-opacity="0" result="BackgroundImageFix"></feFlood> <feBlend data-v-62d13040="" mode="normal" in="SourceGraphic" in2="BackgroundImageFix" result="shape"></feBlend> <feGaussianBlur data-v-62d13040="" stdDeviation="11.7826" result="effect1_foregroundBlur_16927_5756"></feGaussianBlur></filter> <filter data-v-62d13040="" id="filter3_ddi_16927_5756" x="113.504" y="50.0595" width="92.9861" height="53.9773" filterUnits="userSpaceOnUse" color-interpolation-filters="sRGB"><feFlood data-v-62d13040="" flood-opacity="0" result="BackgroundImageFix"></feFlood> <feColorMatrix data-v-62d13040="" in="SourceAlpha" type="matrix" values="0 0 0 0 0 0 0 0 0 0 0 0 0 0 0 0 0 0 127 0" result="hardAlpha"></feColorMatrix> <feOffset data-v-62d13040="" dy="-5.02211"></feOffset> <feGaussianBlur data-v-62d13040="" stdDeviation="6.37421"></feGaussianBlur> <feColorMatrix data-v-62d13040="" type="matrix" values="0 0 0 0 0.404167 0 0 0 0 0.741154 0 0 0 0 1 0 0 0 0.4 0"></feColorMatrix> <feBlend data-v-62d13040="" mode="normal" in2="BackgroundImageFix" result="effect1_dropShadow_16927_5756"></feBlend> <feColorMatrix data-v-62d13040="" in="SourceAlpha" type="matrix" values="0 0 0 0 0 0 0 0 0 0 0 0 0 0 0 0 0 0 127 0" result="hardAlpha"></feColorMatrix> <feOffset data-v-62d13040="" dy="0.717806"></feOffset> <feGaussianBlur data-v-62d13040="" stdDeviation="0.717806"></feGaussianBlur> <feColorMatrix data-v-62d13040="" type="matrix" values="0 0 0 0 1 0 0 0 0 1 0 0 0 0 1 0 0 0 0.25 0"></feColorMatrix> <feBlend data-v-62d13040="" mode="normal" in2="effect1_dropShadow_16927_5756" result="effect2_dropShadow_16927_5756"></feBlend> <feBlend data-v-62d13040="" mode="normal" in="SourceGraphic" in2="effect2_dropShadow_16927_5756" result="shape"></feBlend> <feColorMatrix data-v-62d13040="" in="SourceAlpha" type="matrix" values="0 0 0 0 0 0 0 0 0 0 0 0 0 0 0 0 0 0 127 0" result="hardAlpha"></feColorMatrix> <feOffset data-v-62d13040="" dy="-0.717806"></feOffset> <feGaussianBlur data-v-62d13040="" stdDeviation="0.260205"></feGaussianBlur> <feComposite data-v-62d13040="" in2="hardAlpha" operator="arithmetic" k2="-1" k3="1"></feComposite> <feColorMatrix data-v-62d13040="" type="matrix" values="0 0 0 0 0.925 0 0 0 0 0.936947 0 0 0 0 1 0 0 0 0.12 0"></feColorMatrix> <feBlend data-v-62d13040="" mode="normal" in2="shape" result="effect3_innerShadow_16927_5756"></feBlend></filter> <filter data-v-62d13040="" id="filter4_f_16927_5756" x="52.6437" y="37.298" width="123.6" height="135.291" filterUnits="userSpaceOnUse" color-interpolation-filters="sRGB"><feFlood data-v-62d13040="" flood-opacity="0" result="BackgroundImageFix"></feFlood> <feBlend data-v-62d13040="" mode="normal" in="SourceGraphic" in2="BackgroundImageFix" result="shape"></feBlend> <feGaussianBlur data-v-62d13040="" stdDeviation="11.7826" result="effect1_foregroundBlur_16927_5756"></feGaussianBlur></filter> <filter data-v-62d13040="" id="filter5_i_16927_5756" x="262.391" y="18.3867" width="50.3516" height="50.3535" filterUnits="userSpaceOnUse" color-interpolation-filters="sRGB"><feFlood data-v-62d13040="" flood-opacity="0" result="BackgroundImageFix"></feFlood> <feBlend data-v-62d13040="" mode="normal" in="SourceGraphic" in2="BackgroundImageFix" result="shape"></feBlend> <feColorMatrix data-v-62d13040="" in="SourceAlpha" type="matrix" values="0 0 0 0 0 0 0 0 0 0 0 0 0 0 0 0 0 0 127 0" result="hardAlpha"></feColorMatrix> <feOffset data-v-62d13040=""></feOffset> <feGaussianBlur data-v-62d13040="" stdDeviation="7.55481"></feGaussianBlur> <feComposite data-v-62d13040="" in2="hardAlpha" operator="arithmetic" k2="-1" k3="1"></feComposite> <feColorMatrix data-v-62d13040="" type="matrix" values="0 0 0 0 0.917667 0 0 0 0 0.683333 0 0 0 0 1 0 0 0 0.65 0"></feColorMatrix> <feBlend data-v-62d13040="" mode="normal" in2="shape" result="effect1_innerShadow_16927_5756"></feBlend></filter> <filter data-v-62d13040="" id="filter6_i_16927_5756" x="265.262" y="226.25" width="67.9199" height="67.9199" filterUnits="userSpaceOnUse" color-interpolation-filters="sRGB"><feFlood data-v-62d13040="" flood-opacity="0" result="BackgroundImageFix"></feFlood> <feBlend data-v-62d13040="" mode="normal" in="SourceGraphic" in2="BackgroundImageFix" result="shape"></feBlend> <feColorMatrix data-v-62d13040="" in="SourceAlpha" type="matrix" values="0 0 0 0 0 0 0 0 0 0 0 0 0 0 0 0 0 0 127 0" result="hardAlpha"></feColorMatrix> <feOffset data-v-62d13040=""></feOffset> <feGaussianBlur data-v-62d13040="" stdDeviation="6.32962"></feGaussianBlur> <feComposite data-v-62d13040="" in2="hardAlpha" operator="arithmetic" k2="-1" k3="1"></feComposite> <feColorMatrix data-v-62d13040="" type="matrix" values="0 0 0 0 0.917667 0 0 0 0 0.683333 0 0 0 0 1 0 0 0 0.44 0"></feColorMatrix> <feBlend data-v-62d13040="" mode="normal" in2="shape" result="effect1_innerShadow_16927_5756"></feBlend></filter> <radialGradient data-v-62d13040="" id="paint0_radial_16927_5756" cx="0" cy="0" r="1" gradientUnits="userSpaceOnUse" gradientTransform="translate(109.475 185.267) rotate(-28.5997) scale(137.593 148.734)"><stop data-v-62d13040="" stop-color="#386480"></stop> <stop data-v-62d13040="" offset="0.682292" stop-color="#5B4BB9"></stop> <stop data-v-62d13040="" offset="0.876037" stop-color="#A2E7FD"></stop> <stop data-v-62d13040="" offset="0.923324" stop-color="white"></stop></radialGradient> <radialGradient data-v-62d13040="" id="paint1_radial_16927_5756" cx="0" cy="0" r="1" gradientUnits="userSpaceOnUse" gradientTransform="translate(141.993 236.511) rotate(97.8315) scale(23.4576 39.1717)"><stop data-v-62d13040="" stop-color="#68E9F1"></stop> <stop data-v-62d13040="" offset="0.604167" stop-color="#86AFFF"></stop> <stop data-v-62d13040="" offset="1" stop-color="#9492FF"></stop></radialGradient> <linearGradient data-v-62d13040="" id="paint2_linear_16927_5756" x1="34.2571" y1="0" x2="34.2571" y2="25.9017" gradientUnits="userSpaceOnUse"><stop data-v-62d13040="" offset="0.34375" stop-color="#A0A8FF"></stop> <stop data-v-62d13040="" offset="0.572917" stop-color="#FD91FF"></stop> <stop data-v-62d13040="" offset="0.947005" stop-color="#C9F2FF"></stop></linearGradient> <linearGradient data-v-62d13040="" id="paint3_linear_16927_5756" x1="167.311" y1="209.705" x2="111.984" y2="235.589" gradientUnits="userSpaceOnUse"><stop data-v-62d13040="" stop-color="white"></stop> <stop data-v-62d13040="" offset="1" stop-color="white" stop-opacity="0"></stop></linearGradient> <radialGradient data-v-62d13040="" id="paint4_radial_16927_5756" cx="0" cy="0" r="1" gradientUnits="userSpaceOnUse" gradientTransform="translate(172.908 180.811) rotate(73.8483) scale(55.3824 37.7918)"><stop data-v-62d13040="" offset="0.25" stop-color="#B28BD9"></stop> <stop data-v-62d13040="" offset="0.53125" stop-color="#E340F1"></stop> <stop data-v-62d13040="" offset="0.703125" stop-color="#BB3CF7"></stop> <stop data-v-62d13040="" offset="1" stop-color="#8348FF"></stop></radialGradient> <linearGradient data-v-62d13040="" id="paint5_linear_16927_5756" x1="180.102" y1="223.514" x2="255.723" y2="129.786" gradientUnits="userSpaceOnUse"><stop data-v-62d13040="" stop-color="white"></stop> <stop data-v-62d13040="" offset="0.21875" stop-color="#78FAFA"></stop> <stop data-v-62d13040="" offset="1" stop-color="#78FAFA" stop-opacity="0"></stop></linearGradient> <radialGradient data-v-62d13040="" id="paint6_radial_16927_5756" cx="0" cy="0" r="1" gradientUnits="userSpaceOnUse" gradientTransform="translate(159.566 71.8407) rotate(-80.9833) scale(23.4576 39.1717)"><stop data-v-62d13040="" stop-color="#68E9F1"></stop> <stop data-v-62d13040="" offset="0.604167" stop-color="#86AFFF"></stop> <stop data-v-62d13040="" offset="1" stop-color="#9492FF"></stop></radialGradient> <linearGradient data-v-62d13040="" id="paint7_linear_16927_5756" x1="34.2571" y1="0" x2="34.2571" y2="25.9017" gradientUnits="userSpaceOnUse"><stop data-v-62d13040="" offset="0.34375" stop-color="#A0A8FF"></stop> <stop data-v-62d13040="" offset="0.572917" stop-color="#FD91FF"></stop> <stop data-v-62d13040="" offset="0.947005" stop-color="#C9F2FF"></stop></linearGradient> <linearGradient data-v-62d13040="" id="paint8_linear_16927_5756" x1="133.7" y1="98.1152" x2="189.55" y2="73.3811" gradientUnits="userSpaceOnUse"><stop data-v-62d13040="" stop-color="white"></stop> <stop data-v-62d13040="" offset="1" stop-color="white" stop-opacity="0"></stop></linearGradient> <radialGradient data-v-62d13040="" id="paint9_radial_16927_5756" cx="0" cy="0" r="1" gradientUnits="userSpaceOnUse" gradientTransform="translate(127.505 126.889) rotate(-104.967) scale(55.3824 37.7918)"><stop data-v-62d13040="" offset="0.25" stop-color="#B28BD9"></stop> <stop data-v-62d13040="" offset="0.53125" stop-color="#E340F1"></stop> <stop data-v-62d13040="" offset="0.703125" stop-color="#BB3CF7"></stop> <stop data-v-62d13040="" offset="1" stop-color="#8348FF"></stop></radialGradient> <linearGradient data-v-62d13040="" id="paint10_linear_16927_5756" x1="121.197" y1="84.047" x2="43.6536" y2="176.191" gradientUnits="userSpaceOnUse"><stop data-v-62d13040="" stop-color="white"></stop> <stop data-v-62d13040="" offset="0.21875" stop-color="#78FAFA"></stop> <stop data-v-62d13040="" offset="1" stop-color="#78FAFA" stop-opacity="0"></stop></linearGradient> <linearGradient data-v-62d13040="" id="paint11_linear_16927_5756" x1="171.615" y1="165.263" x2="183.465" y2="130.789" gradientUnits="userSpaceOnUse"><stop data-v-62d13040="" stop-color="#F3FCFF"></stop> <stop data-v-62d13040="" offset="0.47974" stop-color="#654BAE"></stop> <stop data-v-62d13040="" offset="1" stop-color="#303261" stop-opacity="0"></stop></linearGradient> <radialGradient data-v-62d13040="" id="paint12_radial_16927_5756" cx="0" cy="0" r="1" gradientUnits="userSpaceOnUse" gradientTransform="translate(305.001 32.2975) rotate(147.308) scale(49.5512 45.0315)"><stop data-v-62d13040="" offset="0.345524" stop-color="#54146A"></stop> <stop data-v-62d13040="" offset="0.71875" stop-color="#EB6E53"></stop> <stop data-v-62d13040="" offset="0.895833" stop-color="#DEFFFB"></stop></radialGradient> <radialGradient data-v-62d13040="" id="paint13_radial_16927_5756" cx="0" cy="0" r="1" gradientUnits="userSpaceOnUse" gradientTransform="translate(263.111 231.532) rotate(44.1751) scale(97.6148)"><stop data-v-62d13040="" offset="0.630208" stop-color="#00C2FF"></stop> <stop data-v-62d13040="" offset="1" stop-color="white"></stop></radialGradient> <radialGradient data-v-62d13040="" id="paint14_radial_16927_5756" cx="0" cy="0" r="1" gradientUnits="userSpaceOnUse" gradientTransform="translate(331.474 271.249) rotate(-159.422) scale(78.0198)"><stop data-v-62d13040="" stop-color="#FFA3A3" stop-opacity="0"></stop> <stop data-v-62d13040="" offset="0.737543" stop-color="#4A658E"></stop> <stop data-v-62d13040="" offset="0.9375" stop-color="#A99CEC"></stop></radialGradient></defs></svg>