<svg width="635" height="213" fill="none" xmlns="http://www.w3.org/2000/svg"><g clip-path="url(#clip0_504_95)" fill="#fff"><path fill-rule="evenodd" clip-rule="evenodd" d="M53.102 89.568l73.755-33.265 19.649 8.862-51.97 23.492 7.739 3.646 51.718-23.76 46.619 21.025-73.755 33.265-19.756-8.91 53.453-24.356-6.829-3.19-54.02 24.21-46.603-21.019z"/><path d="M124.255 156.303L50.5 122.126l19.577-9.113 54.178 25.062 54.178-25.062 19.122 9.569-73.3 33.721zm120.888-29.558v-7.364h19.043c3.047 0 5.178-.351 6.389-1.052 1.252-.743 1.879-2.001 1.879-3.775 0-3.383-2.401-5.074-7.204-5.074h-7.705c-4.844 0-8.456-1.011-10.836-3.033-2.381-2.062-3.571-5.032-3.571-8.91 0-2.6.668-4.93 2.005-6.993 1.335-2.063 2.777-3.362 4.322-3.898 1.545-.537 2.964-.867 4.26-.99 1.293-.124 3.173-.186 5.638-.186h20.671v7.364h-18.668c-1.921 0-3.152.02-3.695.062-.501.04-1.421.227-2.756.556-1.295.29-1.943 1.589-1.943 3.899 0 1.774.543 3.011 1.629 3.713 1.127.701 3.132 1.052 6.014 1.052h6.703c3.131 0 5.574.247 7.329.742 1.795.496 3.528 1.609 5.199 3.342 1.671 1.691 2.506 4.517 2.506 8.478 0 2.186-.48 4.228-1.442 6.126-.959 1.856-2.108 3.197-3.445 4.022-1.293.784-2.756 1.3-4.384 1.547-1.588.248-3.905.372-6.954.372h-20.984zm42.177 0l17.29-41.275h10.21l17.289 41.275H321.71l-4.009-9.592H301.79l-4.008 9.592H287.32zm22.427-31.374l-5.952 14.418h11.901l-5.949-14.418zm36.874-2.537h-13.342V85.47h36.019v7.364h-13.782v33.911h-8.895V92.834zm31.818-7.364h8.896v23.143c0 1.939.021 3.177.064 3.713.041.495.187 1.609.437 3.342.293 1.732 1.358 2.764 3.196 3.094 1.838.33 3.131.515 3.884.557.792.041 2.003.062 3.633.062h8.518v7.364h-9.459l-4.759-.062c-3.09 0-5.638-.537-7.643-1.609-2.005-1.114-3.487-2.496-4.448-4.146-.961-1.692-1.586-3.424-1.879-5.198-.293-1.815-.44-4.188-.44-7.117V85.47zm36.723 41.275l17.29-41.275h10.209l17.29 41.275h-10.398l-4.01-9.592h-15.911l-4.009 9.592h-10.461zm22.426-31.374l-5.951 14.418h11.901l-5.95-14.418zm38.878 13.304L460.994 85.47h10.461l9.585 16.089 10.086-16.09h10.523l-16.287 23.516v17.76h-8.896v-18.07zM538 85.47v7.364h-11.589c-3.006 0-5.22.206-6.641.618-1.378.413-2.484 1.156-3.319 2.228-.794 1.073-1.316 2-1.566 2.785-.251.784-.375 2.145-.375 4.084H538v7.364h-23.49c.334 3.548 1.378 6.023 3.131 7.426 1.795 1.361 4.844 2.042 9.145 2.042H538v7.364h-11.589c-4.51 0-7.976-.331-10.399-.991-2.379-.66-4.906-2.372-7.58-5.136-2.671-2.764-4.008-7.591-4.008-14.48 0-7.632 1.545-12.727 4.635-15.285 3.132-2.599 5.513-4.145 7.142-4.64 1.669-.496 3.924-.743 6.765-.743H538zm17.183 25.619v15.656h-8.895V85.47h20.421c3.175 0 5.743.185 7.705.557 1.962.371 4.031 1.3 6.202 2.784 2.172 1.444 3.257 4.167 3.257 8.169 0 6.229-2.651 10.251-7.955 12.066 2.715.908 4.656 2.208 5.826 3.899 1.17 1.65 1.754 4.167 1.754 7.55 0 1.691.041 2.825.125 3.403.124.578.417 1.526.877 2.847h-9.96a28.21 28.21 0 01-.501-1.795l-.563-5.136c-.293-3.053-1.254-5.26-2.882-6.622-1.588-1.402-4.345-2.103-8.269-2.103h-7.142zm0-7.364h12.467c2.255 0 3.883-.433 4.885-1.3 1.003-.866 1.504-2.31 1.504-4.331 0-1.898-.501-3.239-1.504-4.023-.961-.825-2.589-1.237-4.885-1.237h-12.467v10.891z"/></g><defs><clipPath id="clip0_504_95"><path fill="#fff" transform="translate(50.5 56.303)" d="M0 0h534v100H0z"/></clipPath></defs></svg>