<svg width="580" height="213" fill="none" xmlns="http://www.w3.org/2000/svg"><g clip-path="url(#clip0_502_1253)" fill="#fff"><path d="M275.372 99.993l-7.582-1.27c-12.412-2.082-14.01-5.64-14.01-8.504 0-5.353 5.972-8.68 15.577-8.68 8.685 0 15.286 3.46 17.668 9.272l.345.849h13.22l-.456-1.685c-3.412-12.624-15.009-20.474-30.277-20.474-10.253 0-18.748 2.826-23.917 7.96-3.492 3.461-5.293 7.85-5.213 12.691.222 10.719 8.568 17.611 24.78 20.474l7.551 1.362c12.252 2.435 14.757 5.475 14.757 9.285 0 5.286-6.86 8.961-16.669 8.961-10.697 0-16.576-3.608-19.654-12.044l-.334-.904h-12.596l.277 1.587c2.536 14.432 14.799 23.411 31.999 23.411 10.363 0 19.049-2.936 24.459-8.259 3.671-3.62 5.596-8.162 5.559-13.149-.112-11.245-8.452-18.082-25.497-20.883h.025-.012zm140.576-29.508h-25.33v70.823h25.33c22.615 0 37.797-14.229 37.797-35.417 0-21.189-15.182-35.412-37.797-35.412v.006zm24.552 35.412c0 14.406-9.408 23.367-24.552 23.367h-12.585V82.523h12.585c15.144 0 24.552 8.949 24.552 23.368v.006zm79.873-35.412v10.42c-6.373-7.038-14.811-11.012-23.657-11.012-20.926 0-36.113 15.14-36.113 35.992 0 20.853 15.187 35.992 36.113 35.992 8.839 0 17.279-3.974 23.657-11.012v10.432h12.443V70.485h-12.443zm0 35.406c0 14.108-9.784 24.338-23.269 24.338-13.485 0-23.269-10.23-23.269-24.338 0-14.107 9.784-24.338 23.269-24.338 13.485 0 23.269 10.23 23.269 24.338zM370.8 80.179c-6.57-6.77-16.144-10.652-26.274-10.652-20.869 0-36.606 15.64-36.606 36.388 0 20.749 16.132 36.389 36.711 36.389 14.509 0 27.532-8.473 33.066-21.286h-14.121c-4.46 6.11-11.073 9.437-18.932 9.437-11.432 0-20.783-7.569-23.282-18.613h59.209l.068-1.269c.722-12.502-2.689-23.02-9.827-30.382h-.012v-.012zm-49.58 19.796c2.301-11.366 11.166-18.612 23.004-18.612 10.018 0 21.338 7.069 23.096 18.612h-46.1zM114.137 46.697c-.532 1.427-1.083 3.187-1.44 5.066-1.028 5.393-.054 9.287 2.904 11.565 2.782 2.146 10.851 5.618 19.392 9.293 2.789 1.201 5.644 2.426 8.547 3.704-3.32-10.928-19.786-23.444-29.403-29.628z"/><path d="M97.17 56.811c-10.64 8.943-16.266 16.976-16.266 23.237 0 12.45 23.452 21.024 32.483 23.278 1.391.345 31.121 7.926 36.867 24.414 3-1.831 7.18-4.466 11.354-7.362 14.493-10.06 14.965-13.562 14.977-13.711 0-1.914-1.827-6.207-14.051-13.283-8.965-5.185-20.349-10.084-30.39-14.407-9.733-4.186-17.42-7.497-20.899-10.179-6.393-4.935-6.666-12.486-5.438-18.623a132.115 132.115 0 00-8.637 6.636zm12.262 93.261c-2.783-2.146-10.846-5.619-19.387-9.293-2.788-1.202-5.644-2.427-8.547-3.711 3.32 10.928 19.786 23.445 29.404 29.629.532-1.428 1.082-3.187 1.439-5.06 1.028-5.393.055-9.288-2.903-11.565h-.006z"/><path d="M127.871 156.583c10.639-8.943 16.265-16.975 16.265-23.243 0-12.45-23.445-21.024-32.483-23.278-1.391-.344-31.12-7.925-36.867-24.413-3 1.831-7.18 4.465-11.354 7.36-14.493 10.061-14.965 13.563-14.977 13.706 0 1.915 1.827 6.208 14.052 13.283 8.964 5.185 20.348 10.085 30.389 14.407 9.733 4.186 17.421 7.498 20.905 10.179 6.393 4.935 6.665 12.486 5.438 18.623a131.815 131.815 0 008.637-6.636l-.005.012z"/></g><defs><clipPath id="clip0_502_1253"><path fill="#fff" transform="translate(48 46.697)" d="M0 0h484.966v120H0z"/></clipPath></defs></svg>