<svg width="446" height="212" fill="none" xmlns="http://www.w3.org/2000/svg"><path d="M169.015 125.839c2.276 7.493 7.233 12.047 17.008 12.047 8.038 0 13.794-3.61 13.794-9.906 0-6.297-6.694-8.298-16.609-10.705l-4.957-1.337c-11.651-2.812-20.361-8.031-20.361-20.212 0-12.18 11.252-20.61 26.922-20.61s25.718 6.688 27.322 20.478h-12.856c-2.01-6.29-6.701-9.768-14.865-9.768-8.571 0-12.723 3.478-12.723 8.697 0 5.751 4.152 7.36 12.723 9.907l7.499 2.14c14.066 4.016 21.432 8.298 21.432 20.073 0 13.517-11.651 22.214-27.727 22.214-17.147 0-27.188-7.361-30.003-23.018h13.401zm122.69-13.517c0 21.415-13.262 36.668-35.766 36.668-22.503 0-35.359-15.259-35.359-36.668 0-21.41 13.661-37.207 35.626-37.207 21.965 0 35.493 15.392 35.493 37.207h.006zm-56.793-.133c0 15.657 7.5 25.564 20.895 25.564 13.394 0 21.026-9.907 21.026-25.564 0-15.658-7.765-25.83-21.026-25.83-13.262 0-20.895 10.837-20.895 25.83zm69.116-60.62h13.528v95.689h-13.528v-95.69zm48.75 95.684l-26.25-70.264h15.404l10.986 31.987 7.765 23.69h.267c3.214-9.774 5.489-14.853 8.703-25.159l10.314-30.511h14.599l-27.056 70.263h-14.732v-.006zM85.03 53.453L52.607 85.849a6.508 6.508 0 000 9.208 6.52 6.52 0 009.216 0l32.421-32.396a6.508 6.508 0 000-9.208 6.52 6.52 0 00-9.216 0zm26.998 26.984l-32.421 32.395a6.508 6.508 0 000 9.209 6.52 6.52 0 009.216 0l32.421-32.396a6.508 6.508 0 000-9.208 6.52 6.52 0 00-9.216 0zm-23.223-3.779l-32.422 32.396a6.507 6.507 0 000 9.208 6.52 6.52 0 009.216 0L98.02 85.867a6.508 6.508 0 000-9.209 6.52 6.52 0 00-9.215 0zm26.996 26.984l-32.422 32.396a6.507 6.507 0 000 9.208 6.52 6.52 0 009.216 0l32.422-32.396a6.507 6.507 0 000-9.208 6.52 6.52 0 00-9.216 0z" fill="#fff"/></svg>