<svg width="635" height="213" fill="none" xmlns="http://www.w3.org/2000/svg"><g clip-path="url(#clip0_504_51)" fill="#fff"><path d="M234.197 81.867h-24.743V70.773h61.368v11.094h-24.839v65.768h-11.786V81.867zm212.418-11.094h54.939v11.094h-43.152v20.602h40.036v10.598h-40.036v23.375h43.152v11.193h-54.939V70.773zm97.894 0c5.779 0 10.682 1.024 14.709 3.07 4.026 1.982 7.013 4.722 8.961 8.222 2.013 3.5 3.02 7.462 3.02 11.886 0 3.565-.714 6.801-2.143 9.706-1.364 2.84-3.442 5.25-6.234 7.231 2.922 1.716 5.033 4.127 6.332 7.231 1.363 3.037 2.045 6.933 2.045 11.687v17.829h-12.76V116.83h-34.971v30.805h-11.786V70.773h32.827zm13.93 35.559V81.867h-34.971v24.465h34.971z"/><path fill-rule="evenodd" clip-rule="evenodd" d="M280.458 138.225c5.78 7.33 14.904 10.994 27.373 10.994 12.598 0 21.755-3.664 27.469-10.994 5.715-7.33 8.572-17.003 8.572-29.021 0-11.952-2.889-21.592-8.669-28.922-5.715-7.395-14.839-11.093-27.372-11.093-12.469 0-21.593 3.698-27.373 11.093-5.714 7.33-8.571 16.97-8.571 28.922 0 11.952 2.857 21.625 8.571 29.021zm50.563-26.446v-4.952c0-8.32 0-12.481-1.593-15.66a14.733 14.733 0 00-6.385-6.492c-3.126-1.62-7.217-1.62-15.401-1.62-8.183 0-12.274 0-15.4 1.62a14.739 14.739 0 00-6.385 6.493c-1.593 3.178-1.593 7.338-1.593 15.659v4.952c0 8.321 0 12.481 1.593 15.659a14.734 14.734 0 006.385 6.493c3.126 1.62 7.217 1.62 15.4 1.62 8.184 0 12.275 0 15.401-1.62a14.729 14.729 0 006.385-6.493c1.593-3.178 1.593-7.338 1.593-15.659zm24.548-40.609h11.689v62.074l22.44-50.265h10.644l22.44 50.265V71.17h11.689v76.267h-18.19L395.02 99.813l-21.261 47.624h-18.19V71.17zM161.722 138.6v-25.347c-.006-2.456-1.966-4.445-4.383-4.445-1.209 0-2.303.376-3.096 1.151-13.779 15.44-45.22 26.684-82.756 28.41-5.51.253-9.643 5.247-5.772 9.241 7.817 8.069 25.402 13.693 45.841 13.693 27.706 0 50.166-9.955 50.166-22.703zm-12.777-38.574V81.374c-.004-1.807-1.453-3.271-3.239-3.271-.894 0-1.703.277-2.289.847-10.184 11.361-33.423 19.636-61.168 20.906-4.072.186-7.128 3.861-4.267 6.8 5.779 5.937 18.776 10.076 33.884 10.076 20.478 0 37.079-7.326 37.079-16.706zm-12.663-28.67V59.4a2.102 2.102 0 00-2.102-2.097c-.579 0-1.104.177-1.484.543-6.606 7.283-21.68 12.587-39.676 13.401-2.642.12-4.624 2.475-2.768 4.36 3.748 3.805 12.179 6.458 21.978 6.458 13.284 0 24.052-4.696 24.052-10.71z"/></g><defs><clipPath id="clip0_504_51"><path fill="#fff" transform="translate(64.2 57.303)" d="M0 0h507v104H0z"/></clipPath></defs></svg>