<svg width="576" height="213" fill="none" xmlns="http://www.w3.org/2000/svg"><path d="M228.957 105.271l15.849-14.216h13.997L237.19 111.53l26.862 32.569h-13.894l-20.48-25.673-5.043 4.668.102 20.899h-10.806V67.08h10.806v36.175c0 3.395-1.749 7.32-3.19 10.397l1.955.849c1.338-3.077 2.985-7.002 5.455-9.23zm106.847 25.885V67.08h10.909v60.788c0 4.349 1.544 5.622 6.175 5.622h6.587v10.503h-7.101c-11.115 0-16.57-4.244-16.57-12.837zm180.499-36.069V67.08h10.807v76.913h-10.807v-3.819c0-3.183 1.647-6.896 2.676-9.972l-1.955-.637c-1.029 2.97-1.647 7.32-3.808 9.548-3.808 4.137-9.16 6.577-16.055 6.577-15.438 0-25.833-12.2-25.627-28.007.206-15.488 10.601-28.325 25.627-28.325 6.895 0 12.247 2.652 16.055 6.79 2.161 2.334 2.779 6.577 3.808 9.654l1.955-.743c-1.029-2.97-2.676-6.79-2.676-9.972zm-18.01 40.101c10.703 0 16.467-7.426 16.467-17.399 0-9.866-5.764-18.034-16.467-18.034-10.601 0-15.952 8.168-15.952 18.034 0 9.973 5.351 17.399 15.952 17.399z" fill="#FEFEFE"/><path fill-rule="evenodd" clip-rule="evenodd" d="M108.062 96.733c0-6.168-4.813-11.176-10.779-11.254h-27.26c10.319.742 18.469 9.595 18.49 20.415h19.549v-9.16zM88.306 67.47c-10.215 0-18.659 7.816-20.011 17.962-10.837.178-19.57 9.29-19.57 20.503 0 11.325 8.907 20.506 19.894 20.506h.229c1.07 7.144 5.716 13.07 11.995 15.775a19.323 19.323 0 007.664 1.577c9.947 0 18.188-7.524 19.66-17.352l.237.001c10.987 0 19.894-9.181 19.894-20.506 0-11.325-8.907-20.506-19.894-20.506h-.087c-1.353-10.145-9.797-17.96-20.01-17.96zm17.83 58.84H77.913c-5.263-.83-9.294-5.516-9.294-11.173v-9.202h19.892v.001c0 10.535 7.707 19.214 17.625 20.374z" fill="#FEFEFE"/><path d="M296.404 145.584c-21.098 0-36.639-16.656-36.639-38.828 0-22.066 15.335-38.616 36.227-38.616 20.172 0 31.39 11.352 33.037 25.673h-11.733c-1.955-7.213-6.998-14.321-21.201-14.321s-24.803 11.245-24.803 27.37c0 16.019 10.6 27.264 24.906 27.264 14.614 0 19.863-7.001 21.818-14.321h11.836c-2.161 15.913-13.688 25.779-33.448 25.779zm-139.15-12.2l34.581-48.27c1.852-2.651 5.454-4.349 8.233-5.834l-.926-1.91c-2.779 1.486-6.278 3.395-9.469 3.395h-31.389V69.732h51.047v11.033h-.103L174.75 128.61c-1.852 2.653-5.454 4.35-8.336 5.835l.926 1.91c2.882-1.485 6.381-3.395 9.572-3.395h32.419v11.033h-52.077v-10.609zm202.622-16.126c0-16.656 11.424-27.9 28.405-27.9 16.982 0 28.405 11.775 28.405 27.9 0 16.231-11.423 28.431-28.405 28.431-16.981 0-28.405-11.669-28.405-28.431zm11.321 0c0 9.76 5.249 17.717 17.084 17.717 11.733 0 17.084-7.957 17.084-17.717 0-9.654-5.248-17.186-17.084-17.186-11.835 0-17.084 7.532-17.084 17.186zm82.669 23.127c-4.426 4.562-8.337 5.199-15.438 5.199-9.777 0-19.245-6.259-19.245-18.247V90.949h10.806v29.068c0 11.033 4.734 15.488 11.63 15.488 7.513 0 15.026-4.561 15.026-15.488V90.949h10.806v53.043h-10.806l.102-2.44c0-2.652 1.647-5.834 2.676-8.274l-1.955-.849c-.926 2.546-1.647 6.153-3.602 7.956z" fill="#FEFEFE"/></svg>